<svg width="218" height="77" viewBox="0 0 218 77" fill="none" xmlns="http://www.w3.org/2000/svg">
<path d="M3 74.5043C3 74.5043 15.6356 41.8483 21.1897 42.8645C26.7438 43.8807 24.165 55.628 29.3817 55.7687C34.5984 55.9094 36.5917 43.9572 40.0432 43.6355C43.4947 43.3139 44.0621 58.0819 49.5989 58.2029C55.1356 58.3239 58.5735 24.06 64.4822 25.1411C70.3908 26.2221 70.7402 49.6675 77.8382 45.5886C84.9363 41.5097 94.9045 1.5856 99.2768 2.38558C103.649 3.18556 95.0611 53.0221 97.2963 56.7892C99.5315 60.5563 106.219 42.0689 110.738 41.5004C115.257 40.9319 111.981 59.4759 117.21 60.4328C122.44 61.3896 125.721 47.0324 129.685 46.3047C133.649 45.577 141.753 55.3306 147.551 53.6691C153.35 52.0077 165.957 10.7716 169.788 10.4679C173.619 10.1641 168.162 59.0009 174.59 58.6162C181.019 58.2316 188.481 36.5929 192.386 38.2881C196.291 39.9833 190.888 64.7782 197.353 65.961C203.817 67.1438 205.478 55.197 209.187 53.8434C212.896 52.4899 215.461 70.7685 215.461 70.7685" stroke="white" stroke-width="4.10022" stroke-linecap="round"/>
</svg>
