<?xml version="1.0" encoding="UTF-8" standalone="no"?>
<!-- Created with Inkscape (http://www.inkscape.org/) -->

<svg
   version="1.1"
   id="svg2"
   width="793.70135"
   height="393.33334"
   viewBox="0 0 793.70135 393.33334"
   sodipodi:docname="LOGO_LATAM.ai"
   xmlns:inkscape="http://www.inkscape.org/namespaces/inkscape"
   xmlns:sodipodi="http://sodipodi.sourceforge.net/DTD/sodipodi-0.dtd"
   xmlns="http://www.w3.org/2000/svg"
   xmlns:svg="http://www.w3.org/2000/svg">
  <defs
     id="defs6">
    <clipPath
       clipPathUnits="userSpaceOnUse"
       id="clipPath24">
      <path
         d="M 0,295 H 595.276 V 0 H 0 Z"
         id="path22" />
    </clipPath>
    <clipPath
       clipPathUnits="userSpaceOnUse"
       id="clipPath42">
      <path
         d="m 235.151,151.231 c -0.521,-0.062 -0.822,-0.126 -0.945,-0.204 v 0 c -0.187,-0.283 1.195,-0.503 3.099,-0.403 v 0 c 1.905,0.039 3.387,0.377 3.351,0.667 v 0 c 0.003,0.076 -0.333,0.123 -0.799,0.142 v 0 c -0.14,0.002 -0.281,0.005 -0.422,0.005 v 0 c -1.444,0 -2.874,-0.071 -4.284,-0.207 m 6.911,0.004 c 0.114,-0.289 1.736,-0.736 3.595,-0.907 v 0 c 1.855,-0.235 3.036,-0.123 2.732,0.144 v 0 c -0.08,0.046 -0.292,0.103 -0.594,0.172 v 0 c -1.658,0.318 -3.348,0.544 -5.065,0.671 v 0 h -10e-4 c -0.104,0.005 -0.199,0.008 -0.282,0.008 v 0 c -0.267,0 -0.415,-0.027 -0.385,-0.088 m -9.397,-0.314 c -1.921,-0.296 -3.801,-0.718 -5.633,-1.255 v 0 c -0.082,-0.033 -0.124,-0.047 -0.165,-0.062 v 0 c -0.432,-0.244 0.57,-0.232 2.367,0.142 v 0 c 1.807,0.304 3.439,0.844 3.707,1.128 v 0 c 0.053,0.041 0.029,0.06 -0.073,0.06 v 0 c -0.05,0 -0.117,-0.004 -0.203,-0.013 m 16.975,-0.709 c 0.344,-0.26 2.075,-0.907 3.773,-1.339 v 0 c 1.347,-0.396 2.18,-0.557 2.08,-0.452 v 0 0.001 c -1.915,0.749 -3.895,1.368 -5.93,1.846 v 0 c -0.003,-0.011 -0.005,-0.021 0.077,-0.056 m -16.427,0.002 c -1.851,-0.227 -3.601,-0.932 -3.87,-1.647 v 0 c -0.299,-0.877 1.12,-1.493 3.192,-1.288 v 0 c 2.101,0.15 3.854,1.069 3.955,1.968 v 0 c 0.065,0.626 -0.965,1.007 -2.429,1.007 v 0 c -0.269,0 -0.553,-0.013 -0.848,-0.04 m 13.645,-1.304 c 0.219,-0.89 2.021,-1.893 4.062,-2.17 v 0 c 1.971,-0.322 3.213,0.174 2.798,1.025 v 0 c -0.4,0.691 -2.157,1.483 -3.951,1.852 v 0 c -0.484,0.081 -0.933,0.12 -1.328,0.12 v 0 c -1.074,0 -1.74,-0.292 -1.581,-0.827 m -9.389,-0.817 c -0.054,-0.9 1.664,-1.729 3.795,-1.766 v 0 c 2.095,-0.088 3.671,0.632 3.506,1.524 v 0 c -0.197,0.741 -1.859,1.347 -3.758,1.447 v 0 c -0.072,0.002 -0.143,0.003 -0.214,0.003 v 0 c -1.806,0 -3.311,-0.492 -3.329,-1.208 m -12.087,0.679 c -1.642,-0.483 -3.372,-1.34 -3.928,-2.014 v 0 c -0.522,-0.814 0.54,-1.184 2.362,-0.762 v 0 c 1.938,0.391 3.774,1.47 4.095,2.335 v 0 c 0.213,0.45 -0.157,0.682 -0.896,0.682 v 0 c -0.433,0 -0.991,-0.08 -1.633,-0.241 m 29.678,-1.338 c 0.446,-0.838 2.253,-1.98 4.03,-2.483 v 0 c 1.69,-0.55 2.489,-0.292 1.837,0.493 v 0 c -0.656,0.627 -2.353,1.558 -3.821,2.156 v 0 c -0.726,0.257 -1.318,0.389 -1.699,0.389 v 0 c -0.447,0 -0.604,-0.181 -0.347,-0.555 m -36.333,-1.173 -0.087,-0.03 c -0.966,-0.517 -1.912,-1.07 -2.833,-1.657 v 0 c -0.306,-0.23 -0.573,-0.441 -0.787,-0.604 v 0 c -0.73,-0.721 -0.164,-0.848 1.327,-0.203 v 0 c 1.557,0.581 3.342,1.786 3.905,2.588 v 0 c 0.262,0.302 0.25,0.446 0.02,0.446 v 0 c -0.261,0.001 -0.804,-0.186 -1.545,-0.54 m 24.617,-2.056 c 0.058,-1.434 1.964,-2.766 4.255,-2.897 v 0 c 2.252,-0.175 3.841,0.895 3.596,2.302 v 0 c -0.247,1.267 -2.123,2.398 -4.191,2.602 v 0 c -0.16,0.012 -0.317,0.017 -0.472,0.017 v 0 c -1.868,0 -3.266,-0.827 -3.188,-2.024 m -13.996,1.31 c -2.008,-0.331 -3.88,-1.529 -4.238,-2.762 v 0 c -0.079,-0.316 -0.062,-0.61 0.033,-0.872 v 0 l -6.326,-4.141 c -0.451,0.308 -1.129,0.377 -1.939,0.146 v 0 c -1.666,-0.551 -3.391,-2.201 -3.914,-3.747 v 0 c -0.497,-1.662 0.451,-2.753 2.225,-2.327 v 0 c 1.887,0.404 3.761,2.213 4.13,3.984 v 0 l 0.018,0.074 7.423,4.859 c 0.459,-0.094 0.996,-0.112 1.587,-0.038 v 0 c 2.189,0.223 4.132,1.622 4.316,3.045 v 0 c 0.181,1.116 -0.94,1.83 -2.544,1.83 v 0 c -0.247,0 -0.505,-0.016 -0.771,-0.051 m 32.658,-0.567 c 0.663,-0.755 2.384,-2.016 3.721,-2.697 v 0 c 1.102,-0.647 1.455,-0.701 1.004,-0.281 v 0 c -1.496,1.182 -3.072,2.268 -4.716,3.249 v 0 c -0.139,0.072 -0.234,0.108 -0.281,0.108 v 0 c -0.084,0 -0.005,-0.122 0.272,-0.379 m -42.073,-0.792 c -1.691,-0.545 -3.45,-1.834 -4.043,-2.999 v 0 c -0.528,-1.268 0.46,-2.013 2.304,-1.554 v 0 c 1.938,0.423 3.86,1.933 4.253,3.297 v 0 c 0.284,0.91 -0.27,1.441 -1.312,1.441 v 0 c -0.35,0 -0.755,-0.06 -1.202,-0.185 m 40.7,-1.494 c 0.478,-1.317 2.306,-2.847 4.048,-3.355 v 0 c 1.63,-0.537 2.417,0.057 1.778,1.285 v 0 c -0.667,1.099 -2.366,2.444 -3.822,3.065 v 0 c -0.491,0.186 -0.919,0.275 -1.26,0.275 v 0 c -0.765,0 -1.096,-0.449 -0.744,-1.27 m -7.465,-1.509 c 0.221,-1.096 1.475,-2.234 2.996,-2.823 v 0 l 0.271,-5.604 c -1.911,0.079 -3.368,-1.148 -3.451,-2.945 v 0 h -8.464 c -0.422,1.82 -2.24,3.152 -4.409,3.134 v 0 c -2.467,-0.058 -4.526,-1.832 -4.639,-4.026 v 0 c -0.081,-2.277 1.927,-4.131 4.503,-4.09 v 0 c 2.155,0.011 3.974,1.351 4.492,3.133 v 0 h 8.868 c 0.701,-1.631 2.371,-2.903 4.22,-3.043 v 0 c 2.261,-0.19 3.859,1.43 3.591,3.595 v 0 c -0.214,1.547 -1.365,2.983 -2.834,3.726 v 0 l -0.275,5.692 c 1.7,-0.136 2.661,0.679 2.258,1.883 v 0 c -0.473,1.203 -2.323,2.463 -4.183,2.899 v 0 c -0.362,0.072 -0.703,0.106 -1.016,0.106 v 0 c -1.331,0 -2.163,-0.618 -1.928,-1.637 m -40.026,1.073 c -1.258,-0.737 -2.847,-2.117 -3.581,-3.127 v 0 c -0.708,-1.143 -0.217,-1.633 1.149,-1.037 v 0 c 1.532,0.609 3.265,2.162 3.838,3.421 v 0 c 0.389,0.725 0.251,1.104 -0.251,1.104 v 0 c -0.28,0 -0.675,-0.119 -1.155,-0.361 m 22.932,-0.798 c -2.267,-0.172 -4.231,-1.683 -4.446,-3.455 v 0 c -0.218,-1.897 1.555,-3.373 3.979,-3.233 v 0 c 2.433,0.095 4.469,1.786 4.526,3.706 v 0 c 0.036,1.721 -1.598,2.99 -3.752,2.99 v 0 c -0.101,0 -0.204,-0.002 -0.307,-0.008 m 31.425,-1.336 c 0.658,-1.198 2.277,-2.775 3.52,-3.423 v 0 c 1.147,-0.714 1.336,-0.316 0.553,0.754 v 0 c -0.806,0.934 -2.232,2.313 -3.222,3.12 v 0 c -0.469,0.327 -0.814,0.488 -1.008,0.488 v 0 c -0.27,0 -0.244,-0.316 0.157,-0.939 m -23.824,-3.057 c 0.136,-1.904 2.188,-3.648 4.548,-3.83 v 0 c 2.306,-0.215 3.912,1.172 3.638,3.02 v 0 c -0.316,1.746 -2.286,3.316 -4.429,3.579 v 0 c -0.179,0.018 -0.355,0.027 -0.527,0.027 v 0 c -1.948,0.001 -3.388,-1.148 -3.23,-2.796 m -34.7,2.183 c -1.407,-1.346 -2.723,-2.786 -3.943,-4.307 v 0 c -0.236,-0.347 -0.068,-0.303 0.497,0.187 v 0 c 0.996,0.759 2.448,2.32 3.181,3.436 v 0 c 0.403,0.533 0.554,0.809 0.469,0.809 v 0 c -0.033,0 -0.101,-0.041 -0.204,-0.125 m 54.147,-4.487 c 0.474,-1.734 2.208,-3.53 3.848,-3.993 v 0 c 1.518,-0.49 2.228,0.451 1.64,2.061 v 0 c -0.606,1.478 -2.161,3.106 -3.564,3.725 v 0 c -0.347,0.136 -0.66,0.2 -0.931,0.2 v 0 c -0.929,0 -1.363,-0.757 -0.993,-1.993 m -54.218,1.734 c -1.157,-0.705 -2.547,-2.316 -3.242,-3.743 v 0 c -0.63,-1.498 -0.183,-2.303 1.051,-1.779 v 0 c 1.377,0.52 2.99,2.333 3.516,3.974 v 0 c 0.41,1.132 0.17,1.79 -0.495,1.79 v 0 c -0.229,0 -0.509,-0.078 -0.83,-0.242 m 63.944,-2.955 c 0.593,-1.56 2.013,-3.34 3.071,-3.879 v 0 c 0.938,-0.593 1.084,0.098 0.41,1.483 v 0 c -0.735,1.307 -1.95,2.924 -2.784,3.663 v 0 c -0.303,0.227 -0.544,0.335 -0.716,0.335 v 0 c -0.399,0 -0.425,-0.581 0.019,-1.602 m -46.749,1.236 c -2.303,-0.208 -4.334,-2.058 -4.541,-4.167 v 0 c -0.217,-2.216 1.534,-3.938 3.946,-3.791 v 0 c 2.471,0.126 4.57,2.102 4.67,4.369 v 0 c 0.118,2.074 -1.539,3.602 -3.722,3.602 v 0 c -0.116,0 -0.234,-0.004 -0.353,-0.013 m -22.387,-1.577 c -0.972,-1.281 -1.857,-2.714 -2.648,-4.11 v 0 c -0.463,-0.903 -0.477,-1.244 0.071,-0.692 v 0 c 0.771,0.614 1.993,2.349 2.631,3.799 v 0 c 0.463,0.909 0.596,1.403 0.43,1.403 v 0 c -0.084,0 -0.247,-0.13 -0.484,-0.4 m 5.044,-2.519 c -1.499,-0.456 -3.062,-2.319 -3.525,-4.16 v 0 c -0.409,-1.905 0.486,-3.237 2.09,-2.896 v 0 c 1.723,0.315 3.455,2.293 3.796,4.36 v 0 c 0.301,1.672 -0.441,2.795 -1.69,2.795 v 0 c -0.21,0 -0.435,-0.032 -0.671,-0.099 m -5.837,-1.118 c -0.942,-0.593 -2.078,-2.341 -2.62,-3.954 v 0 c -0.517,-1.749 -0.162,-2.81 0.845,-2.403 v 0 c 1.154,0.4 2.495,2.263 2.942,4.175 v 0 c 0.385,1.451 0.097,2.348 -0.592,2.348 v 0 c -0.169,0 -0.362,-0.054 -0.575,-0.166 m 13.479,-0.817 c -1.982,-0.351 -3.826,-2.215 -4.166,-4.205 v 0 c -0.324,-2.095 1.047,-3.643 3.124,-3.401 v 0 c 0.208,0.023 0.414,0.062 0.618,0.115 v 0 l 1.541,-5.98 c -1.314,-0.765 -2.275,-2.064 -2.414,-3.479 v 0 c -0.217,-2.217 1.533,-3.939 3.945,-3.792 v 0 c 2.471,0.127 4.571,2.102 4.67,4.369 v 0 c 0.124,2.185 -1.72,3.764 -4.075,3.59 v 0 c -0.128,-0.012 -0.255,-0.029 -0.382,-0.051 v 0 l -1.59,6.174 c 1.122,0.836 1.938,2.121 2.073,3.476 v 0 c 0.223,1.899 -0.98,3.233 -2.748,3.233 v 0 c -0.192,0 -0.392,-0.016 -0.596,-0.049 M 199.9,126.833 c -0.041,-0.076 -0.081,-0.154 -0.127,-0.228 v 0 c -0.761,-1.567 -1.433,-3.186 -2.007,-4.849 v 0 c -0.158,-0.55 -0.156,-0.783 0.075,-0.489 v 0 c 0.505,0.474 1.394,2.227 1.906,3.896 v 0 c 0.429,1.207 0.553,1.914 0.399,1.915 v 0 c -0.051,0 -0.134,-0.08 -0.246,-0.245 m 32.133,-2.278 c -2.467,-0.056 -4.526,-1.83 -4.638,-4.024 v 0 c -0.073,-2.017 1.494,-3.701 3.644,-4.032 v 0 -8.459 c -2.004,-0.436 -3.549,-2.015 -3.644,-3.908 v 0 c -0.041,-1.115 0.422,-2.131 1.209,-2.869 v 0 l -6.001,-7.864 c -0.584,0.309 -1.227,0.507 -1.891,0.557 v 0 c -2.263,0.188 -3.839,-1.455 -3.59,-3.598 v 0 c 0.288,-2.069 2.253,-3.941 4.412,-4.215 v 0 c 2.257,-0.261 3.929,1.252 3.764,3.392 v 0 c -0.075,1.006 -0.536,1.964 -1.233,2.733 v 0 l 6.136,8.04 c 0.521,-0.179 1.093,-0.275 1.696,-0.265 v 0 c 2.572,0.015 4.669,1.923 4.638,4.214 v 0 c -0.023,1.94 -1.588,3.506 -3.646,3.837 v 0 8.449 c 2.097,0.424 3.673,2.123 3.646,4.111 v 0 c -0.026,2.187 -2.014,3.902 -4.458,3.902 v 0 c -0.014,0 -0.029,0 -0.044,-10e-4 m -32.857,-3.883 c -0.884,-0.676 -1.856,-2.519 -2.25,-4.175 v 0 c -0.356,-1.788 0.093,-2.813 1.059,-2.317 v 0 c 1.113,0.503 2.28,2.481 2.552,4.425 v 0 c 0.243,1.43 -0.092,2.288 -0.734,2.288 v 0 c -0.186,0 -0.397,-0.071 -0.627,-0.221 m 8.16,-2.325 c -1.499,-0.455 -3.062,-2.318 -3.525,-4.16 v 0 c -0.409,-1.905 0.485,-3.236 2.089,-2.896 v 0 c 1.723,0.316 3.456,2.293 3.797,4.36 v 0 c 0.3,1.672 -0.441,2.795 -1.689,2.795 v 0 c -0.211,0 -0.435,-0.032 -0.672,-0.099 m -10.914,-7.016 c -0.58,-0.727 -0.833,-2.889 -0.51,-4.704 v 0 c 0.248,-1.754 0.853,-2.404 1.295,-1.52 v 0 c 0.301,0.818 0.41,2.749 0.302,4.374 v 0 c -0.147,1.298 -0.447,2.092 -0.775,2.092 v 0 c -0.103,0 -0.208,-0.078 -0.312,-0.242 m 4.33,-7.926 c 0.504,-1.733 1.874,-3.558 3.11,-4.082 v 0 c 1.38,-0.52 2.205,0.571 1.794,2.448 v 0 c -0.393,1.991 -1.959,3.943 -3.403,4.276 v 0 c -0.17,0.051 -0.329,0.076 -0.476,0.076 v 0 c -0.999,0 -1.423,-1.136 -1.025,-2.718 m 13.953,-0.129 c -2.303,-0.207 -4.334,-2.059 -4.542,-4.167 v 0 c -0.089,-0.916 0.158,-1.748 0.649,-2.399 v 0 l -4.77,-5.441 c -0.536,0.556 -1.136,0.953 -1.719,1.087 v 0 c -1.332,0.399 -1.958,-0.828 -1.5,-2.642 v 0 c 0.503,-1.734 1.873,-3.559 3.109,-4.082 v 0 c 1.38,-0.52 2.205,0.57 1.794,2.448 v 0 c -0.111,0.561 -0.316,1.12 -0.583,1.638 v 0 l 5.15,5.876 c 0.537,-0.215 1.151,-0.316 1.816,-0.276 v 0 c 2.471,0.126 4.57,2.103 4.669,4.37 v 0 c 0.12,2.073 -1.538,3.601 -3.721,3.601 v 0 c -0.116,0 -0.234,-0.004 -0.352,-0.013 m -17.801,-2.083 c -0.401,-0.838 -0.16,-3.001 0.568,-4.694 v 0 c 0.638,-1.654 1.374,-2.149 1.604,-1.19 v 0 c 0.108,0.866 -0.222,2.771 -0.695,4.329 v 0 c -0.417,1.172 -0.865,1.868 -1.182,1.867 v 0 c -0.12,0 -0.221,-0.1 -0.295,-0.312 m 63.255,-8.314 c -2.156,-0.102 -4.055,-1.656 -4.546,-3.572 v 0 l -8.011,-0.414 c -0.513,1.7 -2.243,2.937 -4.352,2.901 v 0 c -2.572,-0.016 -4.646,-1.926 -4.636,-4.215 v 0 c 0.023,-1.813 1.393,-3.3 3.268,-3.753 v 0 L 240.942,74 c -1.924,-0.275 -3.346,-1.397 -3.3,-2.661 v 0 c 0.027,-1.297 1.798,-2.256 3.926,-2.22 v 0 c 2.092,0.087 3.957,1.143 4.094,2.429 v 0 c 0.107,1.203 -1.101,2.218 -2.862,2.461 v 0 l 0.931,9.72 c 1.934,0.266 3.543,1.611 3.935,3.315 v 0 l 7.926,0.41 c 0.416,-1.616 2.02,-2.681 3.977,-2.535 v 0 c 2.303,0.208 4.333,2.061 4.561,4.187 v 0 c 0.184,2.113 -1.423,3.782 -3.685,3.782 v 0 c -0.094,0 -0.19,-0.003 -0.286,-0.009 m -61.2,-2.563 c 0.588,-1.517 1.505,-3.221 2.123,-3.837 v 0 c 0.774,-0.614 1.047,0.231 0.53,1.928 v 0 c -0.474,1.78 -1.619,3.631 -2.451,4.045 v 0 c -0.113,0.073 -0.21,0.108 -0.289,0.108 v 0 c -0.402,0 -0.369,-0.886 0.087,-2.244 m 28.539,-5.709 c 0.122,-1.793 2.074,-3.248 4.386,-3.323 v 0 c 2.335,-0.027 4.253,1.359 4.259,3.165 v 0 c 0.019,1.921 -1.953,3.553 -4.429,3.575 v 0 c -0.043,0.001 -0.087,0.001 -0.13,0.001 v 0 c -2.388,0 -4.217,-1.535 -4.086,-3.418 m 46.154,1.446 c -1.353,-0.487 -2.964,-2.302 -3.488,-3.946 v 0 c -0.576,-1.552 0.047,-2.218 1.328,-1.545 v 0 c 1.128,0.674 2.544,2.32 3.212,3.712 v 0 c 0.496,1.182 0.337,1.953 -0.367,1.953 v 0 c -0.19,0 -0.419,-0.055 -0.685,-0.174 m 3.705,-0.346 c -0.771,-0.617 -2.014,-2.389 -2.651,-3.84 v 0 c -0.699,-1.374 -0.616,-1.766 0.056,-1.003 v 0 c 0.079,0.105 0.158,0.212 0.237,0.318 v 0 c 0.865,1.22 1.669,2.488 2.409,3.794 v 0 c 0.315,0.616 0.422,0.97 0.29,0.97 v 0 c -0.061,0 -0.173,-0.076 -0.341,-0.239 m -74.776,-2.154 c 0.735,-1.306 1.927,-2.885 2.789,-3.657 v 0 c 0.978,-0.72 1.333,-0.192 0.695,1.267 v 0 c -0.595,1.56 -2.019,3.337 -3.1,3.912 v 0 c -0.228,0.144 -0.409,0.212 -0.543,0.212 v 0 c -0.416,0 -0.37,-0.658 0.159,-1.734 m 62.573,0.997 c -1.86,-0.38 -3.731,-2.193 -4.128,-3.986 v 0 c -0.407,-1.672 0.727,-2.562 2.473,-2.064 v 0 c 1.636,0.526 3.359,2.177 3.91,3.753 v 0 c 0.421,1.413 -0.221,2.391 -1.512,2.391 v 0 c -0.228,0 -0.476,-0.03 -0.743,-0.094 m -50.429,-3.861 c 0.462,-1.627 2.304,-3.265 4.151,-3.712 v 0 c 1.935,-0.411 3.294,0.586 2.963,2.305 v 0 c -0.317,1.84 -2.286,3.644 -4.369,3.977 v 0 c -0.236,0.042 -0.461,0.063 -0.674,0.063 v 0 c -1.568,0 -2.447,-1.107 -2.071,-2.633 m -7.73,0.032 c 0.607,-1.48 2.193,-3.136 3.598,-3.753 v 0 c 1.506,-0.572 2.4,0.199 1.892,1.822 v 0 c -0.449,1.706 -2.211,3.528 -3.849,3.991 v 0 c -0.267,0.086 -0.509,0.127 -0.723,0.127 v 0 c -0.999,0 -1.382,-0.89 -0.918,-2.187 m 46.234,1.934 c -2.232,-0.249 -4.25,-2.025 -4.474,-3.901 v 0 c -0.259,-1.771 1.278,-2.882 3.394,-2.553 v 0 c 2.01,0.352 3.926,1.957 4.331,3.663 v 0 c 0.327,1.629 -0.801,2.835 -2.63,2.835 v 0 c -0.199,0 -0.407,-0.014 -0.621,-0.044 m 20.131,-3.006 c -0.969,-0.729 -2.447,-2.323 -3.18,-3.438 v 0 c -0.557,-0.738 -0.633,-0.984 -0.268,-0.687 v 0 c 1.417,1.357 2.743,2.809 3.969,4.343 v 0 c 0.091,0.136 0.117,0.212 0.069,0.212 v 0 c -0.063,0 -0.254,-0.132 -0.59,-0.43 m -66.043,-2.363 c 0.839,-0.966 2.233,-2.313 3.258,-3.149 v 0 c 1.124,-0.781 1.539,-0.615 0.85,0.451 v 0 c -0.66,1.197 -2.281,2.772 -3.555,3.451 v 0 c -0.386,0.235 -0.665,0.345 -0.832,0.345 v 0 c -0.318,0 -0.235,-0.398 0.279,-1.098 m 60.862,-0.605 c -1.499,-0.582 -3.264,-2.161 -3.835,-3.423 v 0 c -0.605,-1.132 0.067,-1.418 1.441,-0.716 v 0 c 1.257,0.738 2.81,2.093 3.576,3.134 v 0 c 0.494,0.8 0.4,1.28 -0.18,1.28 v 0 c -0.247,0 -0.584,-0.088 -1.002,-0.275 m -7.183,-0.474 c -1.936,-0.426 -3.822,-1.917 -4.213,-3.284 v 0 c -0.415,-1.231 0.738,-1.755 2.479,-1.271 v 0 c 1.69,0.544 3.484,1.859 4.042,3.001 v 0 c 0.444,1.027 -0.109,1.692 -1.28,1.693 v 0 c -0.303,0 -0.648,-0.045 -1.028,-0.139 m -32.959,-2.354 c 0.249,-1.267 2.124,-2.397 4.192,-2.6 v 0 c 2.099,-0.15 3.745,0.713 3.698,2.007 v 0 c -0.097,1.437 -2.004,2.767 -4.295,2.898 v 0 c -0.159,0.012 -0.316,0.018 -0.468,0.018 v 0 c -2,0 -3.356,-1.015 -3.127,-2.323 m -15.573,0.24 c 0.636,-1.072 2.335,-2.417 3.828,-3.061 v 0 c 1.593,-0.6 2.514,-0.188 2.003,0.999 v 0 c -0.481,1.316 -2.343,2.865 -4.086,3.374 v 0 c -0.401,0.131 -0.748,0.193 -1.035,0.193 v 0 c -0.882,0 -1.191,-0.581 -0.71,-1.505 m 7.248,-1.403 c 0.439,-1.182 2.287,-2.441 4.148,-2.876 v 0 c 1.897,-0.374 3.274,0.262 2.944,1.532 v 0 c -0.282,1.398 -2.214,2.85 -4.303,3.174 v 0 c -0.318,0.057 -0.617,0.084 -0.893,0.084 v 0 c -1.475,0 -2.302,-0.774 -1.896,-1.914 m 32.069,0.903 c -2.223,-0.237 -4.166,-1.636 -4.349,-3.06 v 0 c -0.169,-1.28 1.317,-2.039 3.357,-1.766 v 0 c 1.967,0.322 3.839,1.52 4.196,2.753 v 0 c 0.33,1.226 -0.744,2.12 -2.486,2.12 v 0 c -0.228,0 -0.468,-0.015 -0.718,-0.047 m -39.62,-0.855 c 1.509,-1.19 3.099,-2.282 4.758,-3.27 v 0 c 0.391,-0.199 0.396,-0.1 -0.031,0.297 v 0 c -0.666,0.753 -2.351,1.989 -3.723,2.695 v 0 c -0.627,0.363 -1.02,0.541 -1.146,0.541 v 0 c -0.089,0 -0.045,-0.089 0.142,-0.263 m 50.42,-1.742 c -1.592,-0.606 -3.376,-1.811 -3.939,-2.615 v 0 c -0.561,-0.644 0.133,-0.569 1.563,0.117 v 0 c 0.03,0.011 0.061,0.02 0.09,0.031 v 0 c 0.96,0.517 1.898,1.067 2.813,1.649 v 0 c 0.3,0.229 0.561,0.436 0.765,0.592 v 0 c 0.414,0.41 0.422,0.636 0.078,0.636 v 0 c -0.261,0 -0.726,-0.13 -1.37,-0.41 m -44.614,-1.727 c 0.656,-0.626 2.354,-1.557 3.862,-2.171 v 0 c 1.576,-0.555 2.482,-0.508 2.046,0.168 v 0 c -0.448,0.838 -2.293,1.995 -4.034,2.478 v 0 c -0.616,0.199 -1.113,0.291 -1.467,0.291 v 0 c -0.618,0 -0.798,-0.281 -0.407,-0.766 m 37.11,-0.53 c -1.898,-0.377 -3.733,-1.46 -4.093,-2.335 v 0 c -0.337,-0.716 0.832,-0.866 2.531,-0.441 v 0 c 1.64,0.482 3.409,1.359 3.925,2.017 v 0 c 0.372,0.581 -0.043,0.943 -0.988,0.943 v 0 c -0.378,0 -0.842,-0.058 -1.375,-0.184 m -33.464,-1.695 c -0.756,0.362 -1.825,0.883 -2.733,1.331 v 0 c -0.117,0.062 -0.195,0.102 -0.315,0.159 v 0 c 0.994,-0.535 2.011,-1.031 3.048,-1.49 m 3.564,-0.092 c 0.441,-0.703 2.2,-1.492 3.953,-1.849 v 0 c 1.845,-0.31 3.126,-0.023 2.908,0.709 v 0 c -0.18,0.881 -2.022,1.893 -4.025,2.155 v 0 c -0.424,0.07 -0.812,0.103 -1.157,0.103 v 0 c -1.29,0 -1.976,-0.457 -1.679,-1.118 m 21.184,0.501 c -2.062,-0.149 -3.854,-1.072 -3.955,-1.972 v 0 c -0.076,-0.74 1.424,-1.133 3.278,-0.965 v 0 c 1.85,0.227 3.601,0.935 3.909,1.66 v 0 c 0.225,0.753 -0.819,1.317 -2.455,1.317 v 0 c -0.247,0 -0.506,-0.013 -0.777,-0.04 m -12.81,-1.787 c 0.156,-0.736 1.819,-1.343 3.718,-1.443 v 0 c 1.942,-0.037 3.524,0.465 3.542,1.209 v 0 c 0.053,0.9 -1.625,1.728 -3.756,1.761 v 0 c -0.12,0.005 -0.239,0.008 -0.355,0.008 v 0 c -1.953,0 -3.344,-0.69 -3.149,-1.535 m -10.107,0.615 c 1.903,-0.742 3.87,-1.354 5.889,-1.827 v 0 h 0.001 c 0.045,0 0.005,0.018 -0.034,0.045 v 0 c -0.388,0.27 -2.076,0.901 -3.775,1.332 v 0 c -1.099,0.325 -1.823,0.482 -2.029,0.482 v 0 c -0.055,0 -0.073,-0.011 -0.052,-0.032 m 26.261,-1.284 c -1.806,-0.307 -3.481,-0.856 -3.704,-1.135 v 0 c -0.08,-0.059 0.01,-0.072 0.228,-0.053 v 0 c 1.937,0.301 3.832,0.727 5.677,1.271 v 0 c 0.039,0.022 0.081,0.034 0.124,0.049 v 0 c 0.19,0.108 0.102,0.166 -0.205,0.166 v 0 c -0.391,0 -1.138,-0.094 -2.12,-0.298 m -19.198,-0.749 c 0.124,-0.053 0.337,-0.112 0.595,-0.171 v 0 c 1.66,-0.317 3.353,-0.543 5.075,-0.669 v 0 c 0.435,-0.019 0.698,0.004 0.658,0.081 v 0 c -0.113,0.289 -1.694,0.731 -3.552,0.9 v 0 c -0.71,0.088 -1.327,0.128 -1.802,0.128 v 0 c -0.766,0 -1.161,-0.103 -0.974,-0.269 m 11.084,-0.145 c -1.862,-0.038 -3.387,-0.378 -3.351,-0.667 v 0 c 0.039,-0.079 0.345,-0.125 0.848,-0.144 v 0 c 0.116,0 0.231,-0.003 0.347,-0.003 v 0 c 1.467,0 2.918,0.072 4.348,0.212 v 0 c 0.481,0.059 0.829,0.127 0.908,0.202 v 0 c 0.154,0.234 -0.771,0.426 -2.179,0.426 v 0 c -0.289,0 -0.597,-0.008 -0.921,-0.026"
         id="path40" />
    </clipPath>
    <clipPath
       clipPathUnits="userSpaceOnUse"
       id="clipPath866">
      <path
         d="M 0,295 H 595.276 V 0 H 0 Z"
         id="path864" />
    </clipPath>
  </defs>
  <sodipodi:namedview
     id="namedview4"
     pagecolor="#ffffff"
     bordercolor="#000000"
     borderopacity="0.25"
     inkscape:showpageshadow="2"
     inkscape:pageopacity="0.0"
     inkscape:pagecheckerboard="0"
     inkscape:deskcolor="#d1d1d1" />
  <g
     id="g8"
     inkscape:groupmode="layer"
     inkscape:label="LOGO_LATAM"
     transform="matrix(1.3333333,0,0,-1.3333333,0,393.33333)">
    <text
       xml:space="preserve"
       transform="matrix(1,0,0,-1,92.0161,157.5898)"
       style="font-variant:normal;font-weight:200;font-stretch:normal;font-size:121.203px;font-family:'Montserrat ExtraLight';-inkscape-font-specification:Montserrat-ExtraLight;writing-mode:lr-tb;fill:#231f20;fill-opacity:1;fill-rule:nonzero;stroke:none"
       id="text12"><tspan
         x="0 70.540436 150.65594 213.68178 298.0394"
         y="0"
         sodipodi:role="line"
         id="tspan10">LATAM</tspan></text>
    <g
       id="g14"
       transform="translate(135.9546,74.7426)">
      <path
         d="M 0,0 V 64.232 H 5.597 L 49.918,8.442 h -2.937 v 55.79 H 53.68 V 0 H 48.082 L 3.854,55.791 H 6.79 V 0 Z"
         style="fill:#6a84ba;fill-opacity:1;fill-rule:nonzero;stroke:none"
         id="path16" />
    </g>
    <g
       id="g18">
      <g
         id="g20"
         clip-path="url(#clipPath24)">
        <g
           id="g26"
           transform="translate(294.3311,80.6156)">
          <path
             d="m 0,0 h 18.994 c 5.689,0 10.629,1.115 14.82,3.349 4.189,2.233 7.447,5.322 9.772,9.268 2.325,3.945 3.487,8.488 3.487,13.627 0,5.199 -1.162,9.756 -3.487,13.672 -2.325,3.914 -5.583,6.988 -9.772,9.222 -4.191,2.232 -9.131,3.349 -14.82,3.349 L 0,52.487 Z m -6.791,-5.873 v 64.232 h 26.153 c 6.85,0 12.86,-1.362 18.03,-4.083 5.169,-2.722 9.191,-6.5 12.067,-11.332 2.875,-4.833 4.313,-10.401 4.313,-16.7 0,-6.302 -1.438,-11.869 -4.313,-16.701 C 46.583,4.709 42.561,0.932 37.392,-1.789 32.222,-4.512 26.212,-5.873 19.362,-5.873 Z"
             style="fill:#6a84ba;fill-opacity:1;fill-rule:nonzero;stroke:none"
             id="path28" />
        </g>
        <path
           d="m 369.391,110.254 h 33.951 v -5.781 h -33.951 z m 0.734,-29.638 h 38.631 v -5.873 h -45.422 v 64.232 h 44.045 v -5.872 h -37.254 z"
           style="fill:#6a84ba;fill-opacity:1;fill-rule:nonzero;stroke:none"
           id="path30" />
        <g
           id="g32"
           transform="translate(442.4311,74.1925)">
          <path
             d="M 0,0 C -4.772,0 -9.345,0.78 -13.719,2.339 -18.093,3.9 -21.472,5.903 -23.858,8.35 l 2.662,5.231 c 2.262,-2.203 5.306,-4.054 9.13,-5.552 3.822,-1.5 7.845,-2.248 12.066,-2.248 4.037,0 7.325,0.504 9.865,1.513 2.537,1.01 4.404,2.371 5.596,4.084 1.194,1.712 1.79,3.609 1.79,5.689 0,2.508 -0.72,4.527 -2.157,6.056 -1.438,1.529 -3.318,2.737 -5.643,3.625 -2.325,0.886 -4.894,1.666 -7.707,2.34 -2.815,0.673 -5.63,1.39 -8.443,2.156 -2.814,0.765 -5.399,1.79 -7.753,3.074 -2.356,1.285 -4.253,2.983 -5.69,5.093 -1.438,2.11 -2.156,4.878 -2.156,8.305 0,3.179 0.84,6.102 2.523,8.762 1.682,2.661 4.267,4.802 7.754,6.424 3.488,1.62 7.952,2.432 13.398,2.432 3.608,0 7.187,-0.505 10.736,-1.515 3.546,-1.009 6.606,-2.401 9.176,-4.175 L 18.995,54.23 c -2.754,1.836 -5.676,3.181 -8.764,4.038 -3.089,0.856 -6.072,1.285 -8.946,1.285 -3.854,0 -7.036,-0.521 -9.544,-1.56 -2.509,-1.041 -4.358,-2.432 -5.551,-4.175 -1.193,-1.744 -1.789,-3.717 -1.789,-5.919 0,-2.509 0.718,-4.528 2.156,-6.056 1.436,-1.53 3.334,-2.723 5.689,-3.579 2.355,-0.857 4.939,-1.621 7.754,-2.294 2.813,-0.673 5.611,-1.408 8.396,-2.202 2.783,-0.796 5.352,-1.821 7.707,-3.075 2.355,-1.254 4.252,-2.921 5.69,-5 1.436,-2.081 2.156,-4.803 2.156,-8.167 0,-3.12 -0.857,-6.01 -2.569,-8.671 C 19.667,6.193 17.052,4.051 13.534,2.431 10.016,0.81 5.505,0 0,0"
             style="fill:#6a84ba;fill-opacity:1;fill-rule:nonzero;stroke:none"
             id="path34" />
        </g>
      </g>
    </g>
    <g
       id="g36">
      <g
         id="g38"
         clip-path="url(#clipPath42)">
        <g
           id="g44"
           transform="translate(179.9538,88.7156)">
          <path
             d="m 0,0 -0.071,-0.137 78.052,-40.828 0.072,0.137 z"
             style="fill:#745ea6;fill-opacity:1;fill-rule:nonzero;stroke:none"
             id="path46" />
        </g>
        <g
           id="g48"
           transform="translate(179.7812,88.3855)">
          <path
             d="m 0,0 0.303,0.579 78.053,-40.827 -0.303,-0.581 z"
             style="fill:#755ea5;fill-opacity:1;fill-rule:nonzero;stroke:none"
             id="path50" />
        </g>
        <g
           id="g52"
           transform="translate(179.9834,88.7716)">
          <path
             d="m 0,0 0.304,0.582 78.052,-40.829 -0.303,-0.58 z"
             style="fill:#735fa8;fill-opacity:1;fill-rule:nonzero;stroke:none"
             id="path54" />
        </g>
        <g
           id="g56"
           transform="translate(180.1861,89.1593)">
          <path
             d="m 0,0 0.303,0.581 78.054,-40.828 -0.304,-0.582 z"
             style="fill:#735fa8;fill-opacity:1;fill-rule:nonzero;stroke:none"
             id="path58" />
        </g>
        <g
           id="g60"
           transform="translate(180.3883,89.5471)">
          <path
             d="m 0,0 0.305,0.581 78.052,-40.829 -0.303,-0.581 z"
             style="fill:#745fa5;fill-opacity:1;fill-rule:nonzero;stroke:none"
             id="path62" />
        </g>
        <g
           id="g64"
           transform="translate(180.5918,89.9333)">
          <path
             d="m 0,0 0.303,0.582 78.053,-40.829 -0.303,-0.581 z"
             style="fill:#745fa5;fill-opacity:1;fill-rule:nonzero;stroke:none"
             id="path66" />
        </g>
        <g
           id="g68"
           transform="translate(180.794,90.3211)">
          <path
             d="m 0,0 0.304,0.581 78.052,-40.828 -0.303,-0.582 z"
             style="fill:#745fa5;fill-opacity:1;fill-rule:nonzero;stroke:none"
             id="path70" />
        </g>
        <g
           id="g72"
           transform="translate(180.9967,90.7088)">
          <path
             d="m 0,0 0.303,0.581 78.053,-40.829 -0.303,-0.58 z"
             style="fill:#745fa5;fill-opacity:1;fill-rule:nonzero;stroke:none"
             id="path74" />
        </g>
        <g
           id="g76"
           transform="translate(181.1989,91.0949)">
          <path
             d="m 0,0 0.304,0.582 78.053,-40.829 -0.304,-0.58 z"
             style="fill:#7361a7;fill-opacity:1;fill-rule:nonzero;stroke:none"
             id="path78" />
        </g>
        <g
           id="g80"
           transform="translate(181.4016,91.4843)">
          <path
             d="m 0,0 0.304,0.579 78.053,-40.827 -0.304,-0.583 z"
             style="fill:#7461a6;fill-opacity:1;fill-rule:nonzero;stroke:none"
             id="path82" />
        </g>
        <g
           id="g84"
           transform="translate(181.6038,91.8704)">
          <path
             d="m 0,0 0.305,0.581 78.052,-40.829 -0.303,-0.579 z"
             style="fill:#7461a6;fill-opacity:1;fill-rule:nonzero;stroke:none"
             id="path86" />
        </g>
        <g
           id="g88"
           transform="translate(181.8069,92.2567)">
          <path
             d="m 0,0 0.304,0.582 78.053,-40.829 -0.304,-0.581 z"
             style="fill:#7461a8;fill-opacity:1;fill-rule:nonzero;stroke:none"
             id="path90" />
        </g>
        <g
           id="g92"
           transform="translate(182.0095,92.6459)">
          <path
             d="m 0,0 0.304,0.579 78.052,-40.827 -0.303,-0.581 z"
             style="fill:#7461a8;fill-opacity:1;fill-rule:nonzero;stroke:none"
             id="path94" />
        </g>
        <g
           id="g96"
           transform="translate(182.2117,93.0322)">
          <path
             d="m 0,0 0.304,0.581 78.053,-40.829 -0.304,-0.58 z"
             style="fill:#7462a7;fill-opacity:1;fill-rule:nonzero;stroke:none"
             id="path98" />
        </g>
        <g
           id="g100"
           transform="translate(182.4144,93.4199)">
          <path
             d="m 0,0 0.304,0.581 78.053,-40.829 -0.304,-0.581 z"
             style="fill:#7462a7;fill-opacity:1;fill-rule:nonzero;stroke:none"
             id="path102" />
        </g>
        <g
           id="g104"
           transform="translate(182.6166,93.8077)">
          <path
             d="m 0,0 0.305,0.579 78.052,-40.827 -0.303,-0.581 z"
             style="fill:#7462a7;fill-opacity:1;fill-rule:nonzero;stroke:none"
             id="path106" />
        </g>
        <g
           id="g108"
           transform="translate(182.8201,94.1938)">
          <path
             d="m 0,0 0.304,0.581 78.052,-40.829 -0.303,-0.579 z"
             style="fill:#7363a8;fill-opacity:1;fill-rule:nonzero;stroke:none"
             id="path110" />
        </g>
        <g
           id="g112"
           transform="translate(183.0223,94.5817)">
          <path
             d="m 0,0 0.304,0.581 78.052,-40.828 -0.303,-0.582 z"
             style="fill:#7363a8;fill-opacity:1;fill-rule:nonzero;stroke:none"
             id="path114" />
        </g>
        <g
           id="g116"
           transform="translate(183.225,94.9695)">
          <path
             d="m 0,0 0.304,0.579 78.052,-40.827 -0.303,-0.581 z"
             style="fill:#7464a7;fill-opacity:1;fill-rule:nonzero;stroke:none"
             id="path118" />
        </g>
        <g
           id="g120"
           transform="translate(183.4272,95.3555)">
          <path
             d="m 0,0 0.304,0.582 78.053,-40.83 -0.304,-0.58 z"
             style="fill:#7464a7;fill-opacity:1;fill-rule:nonzero;stroke:none"
             id="path122" />
        </g>
        <g
           id="g124"
           transform="translate(183.6299,95.7433)">
          <path
             d="m 0,0 0.304,0.581 78.053,-40.828 -0.304,-0.582 z"
             style="fill:#7365a7;fill-opacity:1;fill-rule:nonzero;stroke:none"
             id="path126" />
        </g>
        <g
           id="g128"
           transform="translate(183.8321,96.131)">
          <path
             d="m 0,0 0.305,0.579 78.052,-40.827 -0.303,-0.581 z"
             style="fill:#7365a7;fill-opacity:1;fill-rule:nonzero;stroke:none"
             id="path130" />
        </g>
        <g
           id="g132"
           transform="translate(184.0356,96.5173)">
          <path
             d="m 0,0 0.303,0.582 78.053,-40.829 -0.303,-0.581 z"
             style="fill:#7365a7;fill-opacity:1;fill-rule:nonzero;stroke:none"
             id="path134" />
        </g>
        <g
           id="g136"
           transform="translate(184.2378,96.9051)">
          <path
             d="m 0,0 0.304,0.581 78.052,-40.828 -0.303,-0.582 z"
             style="fill:#7365a8;fill-opacity:1;fill-rule:nonzero;stroke:none"
             id="path138" />
        </g>
        <g
           id="g140"
           transform="translate(184.4404,97.2928)">
          <path
             d="m 0,0 0.303,0.581 78.053,-40.829 -0.303,-0.581 z"
             style="fill:#7365a8;fill-opacity:1;fill-rule:nonzero;stroke:none"
             id="path142" />
        </g>
        <g
           id="g144"
           transform="translate(184.6427,97.6789)">
          <path
             d="m 0,0 0.304,0.582 78.053,-40.829 -0.304,-0.58 z"
             style="fill:#7366a8;fill-opacity:1;fill-rule:nonzero;stroke:none"
             id="path146" />
        </g>
        <g
           id="g148"
           transform="translate(184.8453,98.0667)">
          <path
             d="m 0,0 0.304,0.581 78.053,-40.828 -0.303,-0.582 z"
             style="fill:#7366a8;fill-opacity:1;fill-rule:nonzero;stroke:none"
             id="path150" />
        </g>
        <g
           id="g152"
           transform="translate(185.0484,98.4544)">
          <path
             d="m 0,0 0.304,0.581 78.052,-40.829 -0.303,-0.579 z"
             style="fill:#7366a8;fill-opacity:1;fill-rule:nonzero;stroke:none"
             id="path154" />
        </g>
        <g
           id="g156"
           transform="translate(185.2511,98.8407)">
          <path
             d="m 0,0 0.303,0.582 78.053,-40.829 -0.303,-0.581 z"
             style="fill:#7367aa;fill-opacity:1;fill-rule:nonzero;stroke:none"
             id="path158" />
        </g>
        <g
           id="g160"
           transform="translate(185.4533,99.2299)">
          <path
             d="m 0,0 0.304,0.579 78.052,-40.827 -0.303,-0.583 z"
             style="fill:#7367aa;fill-opacity:1;fill-rule:nonzero;stroke:none"
             id="path162" />
        </g>
        <g
           id="g164"
           transform="translate(185.6559,99.6162)">
          <path
             d="m 0,0 0.303,0.581 78.054,-40.829 -0.304,-0.58 z"
             style="fill:#7367aa;fill-opacity:1;fill-rule:nonzero;stroke:none"
             id="path166" />
        </g>
        <g
           id="g168"
           transform="translate(185.8582,100.0023)">
          <path
             d="m 0,0 0.305,0.582 78.052,-40.829 -0.304,-0.58 z"
             style="fill:#7268a9;fill-opacity:1;fill-rule:nonzero;stroke:none"
             id="path170" />
        </g>
        <g
           id="g172"
           transform="translate(186.0608,100.3917)">
          <path
             d="m 0,0 0.304,0.579 78.053,-40.827 -0.303,-0.581 z"
             style="fill:#7268a9;fill-opacity:1;fill-rule:nonzero;stroke:none"
             id="path174" />
        </g>
        <g
           id="g176"
           transform="translate(186.2639,100.7778)">
          <path
             d="m 0,0 0.304,0.581 78.052,-40.829 -0.303,-0.579 z"
             style="fill:#7268a9;fill-opacity:1;fill-rule:nonzero;stroke:none"
             id="path178" />
        </g>
        <g
           id="g180"
           transform="translate(186.4661,101.1655)">
          <path
             d="m 0,0 0.304,0.581 78.053,-40.828 -0.304,-0.582 z"
             style="fill:#736aaa;fill-opacity:1;fill-rule:nonzero;stroke:none"
             id="path182" />
        </g>
        <g
           id="g184"
           transform="translate(186.6687,101.5533)">
          <path
             d="m 0,0 0.304,0.579 78.052,-40.827 -0.303,-0.581 z"
             style="fill:#736aaa;fill-opacity:1;fill-rule:nonzero;stroke:none"
             id="path186" />
        </g>
        <g
           id="g188"
           transform="translate(186.871,101.9395)">
          <path
             d="m 0,0 0.304,0.581 78.053,-40.829 -0.304,-0.58 z"
             style="fill:#736aaa;fill-opacity:1;fill-rule:nonzero;stroke:none"
             id="path190" />
        </g>
        <g
           id="g192"
           transform="translate(187.0736,102.3273)">
          <path
             d="m 0,0 0.304,0.581 78.053,-40.828 -0.304,-0.582 z"
             style="fill:#736aaa;fill-opacity:1;fill-rule:nonzero;stroke:none"
             id="path194" />
        </g>
        <g
           id="g196"
           transform="translate(187.2767,102.715)">
          <path
             d="m 0,0 0.304,0.579 78.052,-40.827 -0.303,-0.581 z"
             style="fill:#736aaa;fill-opacity:1;fill-rule:nonzero;stroke:none"
             id="path198" />
        </g>
        <g
           id="g200"
           transform="translate(187.4793,103.1013)">
          <path
             d="m 0,0 0.303,0.582 78.053,-40.829 -0.303,-0.581 z"
             style="fill:#736aaa;fill-opacity:1;fill-rule:nonzero;stroke:none"
             id="path202" />
        </g>
        <g
           id="g204"
           transform="translate(187.6816,103.4891)">
          <path
             d="m 0,0 0.304,0.581 78.052,-40.828 -0.303,-0.582 z"
             style="fill:#726cab;fill-opacity:1;fill-rule:nonzero;stroke:none"
             id="path206" />
        </g>
        <g
           id="g208"
           transform="translate(187.8842,103.8768)">
          <path
             d="m 0,0 0.303,0.581 78.053,-40.829 -0.303,-0.581 z"
             style="fill:#726cab;fill-opacity:1;fill-rule:nonzero;stroke:none"
             id="path210" />
        </g>
        <g
           id="g212"
           transform="translate(188.0865,104.2629)">
          <path
             d="m 0,0 0.304,0.582 78.053,-40.829 -0.304,-0.58 z"
             style="fill:#726cab;fill-opacity:1;fill-rule:nonzero;stroke:none"
             id="path214" />
        </g>
        <g
           id="g216"
           transform="translate(188.2891,104.6506)">
          <path
             d="m 0,0 0.304,0.581 78.053,-40.828 -0.303,-0.582 z"
             style="fill:#726cab;fill-opacity:1;fill-rule:nonzero;stroke:none"
             id="path218" />
        </g>
        <g
           id="g220"
           transform="translate(188.4922,105.0384)">
          <path
             d="m 0,0 0.304,0.581 78.052,-40.829 -0.303,-0.581 z"
             style="fill:#726cab;fill-opacity:1;fill-rule:nonzero;stroke:none"
             id="path222" />
        </g>
        <g
           id="g224"
           transform="translate(188.6948,105.4247)">
          <path
             d="m 0,0 0.303,0.582 78.053,-40.829 -0.303,-0.581 z"
             style="fill:#726cab;fill-opacity:1;fill-rule:nonzero;stroke:none"
             id="path226" />
        </g>
        <g
           id="g228"
           transform="translate(188.897,105.8124)">
          <path
             d="m 0,0 0.304,0.581 78.052,-40.828 -0.303,-0.582 z"
             style="fill:#726cab;fill-opacity:1;fill-rule:nonzero;stroke:none"
             id="path230" />
        </g>
        <g
           id="g232"
           transform="translate(189.0997,106.2002)">
          <path
             d="m 0,0 0.303,0.581 78.054,-40.829 -0.304,-0.58 z"
             style="fill:#716dab;fill-opacity:1;fill-rule:nonzero;stroke:none"
             id="path234" />
        </g>
        <g
           id="g236"
           transform="translate(189.3019,106.5862)">
          <path
             d="m 0,0 0.305,0.582 78.052,-40.829 -0.304,-0.58 z"
             style="fill:#716dab;fill-opacity:1;fill-rule:nonzero;stroke:none"
             id="path238" />
        </g>
        <g
           id="g240"
           transform="translate(189.5046,106.9748)">
          <path
             d="M 0,0 0.304,0.581 78.357,-40.247 78.054,-40.83 Z"
             style="fill:#726eac;fill-opacity:1;fill-rule:nonzero;stroke:none"
             id="path242" />
        </g>
        <g
           id="g244"
           transform="translate(189.7076,107.3617)">
          <path
             d="m 0,0 0.304,0.581 78.052,-40.829 -0.303,-0.579 z"
             style="fill:#726fad;fill-opacity:1;fill-rule:nonzero;stroke:none"
             id="path246" />
        </g>
        <g
           id="g248"
           transform="translate(189.9099,107.7489)">
          <path
             d="m 0,0 0.304,0.582 78.053,-40.829 -0.304,-0.581 z"
             style="fill:#726fad;fill-opacity:1;fill-rule:nonzero;stroke:none"
             id="path250" />
        </g>
        <g
           id="g252"
           transform="translate(190.1125,108.1366)">
          <path
             d="m 0,0 0.304,0.581 78.052,-40.828 -0.303,-0.581 z"
             style="fill:#726fad;fill-opacity:1;fill-rule:nonzero;stroke:none"
             id="path254" />
        </g>
        <g
           id="g256"
           transform="translate(190.3148,108.5235)">
          <path
             d="m 0,0 0.304,0.581 78.053,-40.829 -0.304,-0.58 z"
             style="fill:#726fad;fill-opacity:1;fill-rule:nonzero;stroke:none"
             id="path258" />
        </g>
        <g
           id="g260"
           transform="translate(190.5174,108.9113)">
          <path
             d="m 0,0 0.305,0.581 78.052,-40.828 -0.303,-0.582 z"
             style="fill:#7170ad;fill-opacity:1;fill-rule:nonzero;stroke:none"
             id="path262" />
        </g>
        <g
           id="g264"
           transform="translate(190.7205,109.2982)">
          <path
             d="m 0,0 0.304,0.581 78.052,-40.828 -0.303,-0.581 z"
             style="fill:#7071ae;fill-opacity:1;fill-rule:nonzero;stroke:none"
             id="path266" />
        </g>
        <g
           id="g268"
           transform="translate(190.9231,109.6853)">
          <path
             d="m 0,0 0.304,0.582 78.052,-40.83 -0.303,-0.58 z"
             style="fill:#7071ae;fill-opacity:1;fill-rule:nonzero;stroke:none"
             id="path270" />
        </g>
        <g
           id="g272"
           transform="translate(191.1254,110.0731)">
          <path
             d="m 0,0 0.304,0.581 78.052,-40.828 -0.303,-0.582 z"
             style="fill:#7071ae;fill-opacity:1;fill-rule:nonzero;stroke:none"
             id="path274" />
        </g>
        <g
           id="g276"
           transform="translate(191.328,110.46)">
          <path
             d="m 0,0 0.304,0.581 78.053,-40.828 -0.304,-0.581 z"
             style="fill:#7071ae;fill-opacity:1;fill-rule:nonzero;stroke:none"
             id="path278" />
        </g>
        <g
           id="g280"
           transform="translate(191.5302,110.8477)">
          <path
             d="m 0,0 0.305,0.581 78.052,-40.828 -0.304,-0.581 z"
             style="fill:#7072ae;fill-opacity:1;fill-rule:nonzero;stroke:none"
             id="path282" />
        </g>
        <g
           id="g284"
           transform="translate(191.7329,111.2346)">
          <path
             d="m 0,0 0.304,0.581 78.053,-40.828 -0.303,-0.582 z"
             style="fill:#7072ae;fill-opacity:1;fill-rule:nonzero;stroke:none"
             id="path286" />
        </g>
        <g
           id="g288"
           transform="translate(191.9359,111.6215)">
          <path
             d="m 0,0 0.304,0.582 78.052,-40.829 -0.303,-0.58 z"
             style="fill:#7072ae;fill-opacity:1;fill-rule:nonzero;stroke:none"
             id="path290" />
        </g>
        <g
           id="g292"
           transform="translate(192.1386,112.0093)">
          <path
             d="m 0,0 0.303,0.581 78.053,-40.828 -0.303,-0.581 z"
             style="fill:#7172af;fill-opacity:1;fill-rule:nonzero;stroke:none"
             id="path294" />
        </g>
        <g
           id="g296"
           transform="translate(192.3408,112.3964)">
          <path
             d="m 0,0 0.304,0.581 78.052,-40.828 -0.303,-0.582 z"
             style="fill:#7172af;fill-opacity:1;fill-rule:nonzero;stroke:none"
             id="path298" />
        </g>
        <g
           id="g300"
           transform="translate(192.5435,112.7841)">
          <path
             d="m 0,0 0.303,0.581 78.054,-40.829 -0.304,-0.58 z"
             style="fill:#7172af;fill-opacity:1;fill-rule:nonzero;stroke:none"
             id="path302" />
        </g>
        <g
           id="g304"
           transform="translate(192.7457,113.1711)">
          <path
             d="m 0,0 0.305,0.581 78.052,-40.828 -0.303,-0.581 z"
             style="fill:#7172af;fill-opacity:1;fill-rule:nonzero;stroke:none"
             id="path306" />
        </g>
        <g
           id="g308"
           transform="translate(192.9492,113.558)">
          <path
             d="m 0,0 0.303,0.582 78.053,-40.829 -0.303,-0.582 z"
             style="fill:#7073af;fill-opacity:1;fill-rule:nonzero;stroke:none"
             id="path310" />
        </g>
        <g
           id="g312"
           transform="translate(193.1514,113.9457)">
          <path
             d="m 0,0 0.304,0.581 78.052,-40.829 -0.303,-0.579 z"
             style="fill:#7073b0;fill-opacity:1;fill-rule:nonzero;stroke:none"
             id="path314" />
        </g>
        <g
           id="g316"
           transform="translate(193.3541,114.3328)">
          <path
             d="m 0,0 0.303,0.581 78.053,-40.828 -0.303,-0.581 z"
             style="fill:#7073b0;fill-opacity:1;fill-rule:nonzero;stroke:none"
             id="path318" />
        </g>
        <g
           id="g320"
           transform="translate(193.5563,114.7206)">
          <path
             d="m 0,0 0.304,0.581 78.053,-40.828 -0.304,-0.581 z"
             style="fill:#7175b0;fill-opacity:1;fill-rule:nonzero;stroke:none"
             id="path322" />
        </g>
        <g
           id="g324"
           transform="translate(193.7589,115.1075)">
          <path
             d="m 0,0 0.304,0.581 78.053,-40.829 -0.304,-0.58 z"
             style="fill:#7175b0;fill-opacity:1;fill-rule:nonzero;stroke:none"
             id="path326" />
        </g>
        <g
           id="g328"
           transform="translate(193.9612,115.4944)">
          <path
             d="m 0,0 0.305,0.582 78.052,-40.829 -0.304,-0.581 z"
             style="fill:#7175b0;fill-opacity:1;fill-rule:nonzero;stroke:none"
             id="path330" />
        </g>
        <g
           id="g332"
           transform="translate(194.1642,115.8822)">
          <path
             d="m 0,0 0.304,0.581 78.053,-40.828 -0.304,-0.581 z"
             style="fill:#7175b0;fill-opacity:1;fill-rule:nonzero;stroke:none"
             id="path334" />
        </g>
        <g
           id="g336"
           transform="translate(194.3669,116.2693)">
          <path
             d="m 0,0 0.304,0.581 78.052,-40.829 -0.303,-0.58 z"
             style="fill:#7175b0;fill-opacity:1;fill-rule:nonzero;stroke:none"
             id="path338" />
        </g>
        <g
           id="g340"
           transform="translate(194.5691,116.657)">
          <path
             d="m 0,0 0.304,0.581 78.053,-40.828 -0.304,-0.582 z"
             style="fill:#7176b1;fill-opacity:1;fill-rule:nonzero;stroke:none"
             id="path342" />
        </g>
        <g
           id="g344"
           transform="translate(194.7718,117.0439)">
          <path
             d="m 0,0 0.304,0.581 78.053,-40.828 -0.304,-0.581 z"
             style="fill:#7176b1;fill-opacity:1;fill-rule:nonzero;stroke:none"
             id="path346" />
        </g>
        <g
           id="g348"
           transform="translate(194.974,117.4317)">
          <path
             d="m 0,0 0.305,0.581 78.052,-40.83 -0.304,-0.579 z"
             style="fill:#7077b1;fill-opacity:1;fill-rule:nonzero;stroke:none"
             id="path350" />
        </g>
        <g
           id="g352"
           transform="translate(195.1775,117.8186)">
          <path
             d="m 0,0 0.304,0.581 78.052,-40.828 -0.303,-0.582 z"
             style="fill:#7077b1;fill-opacity:1;fill-rule:nonzero;stroke:none"
             id="path354" />
        </g>
        <g
           id="g356"
           transform="translate(195.3797,118.2055)">
          <path
             d="m 0,0 0.304,0.581 78.052,-40.828 -0.303,-0.58 z"
             style="fill:#6f78b2;fill-opacity:1;fill-rule:nonzero;stroke:none"
             id="path358" />
        </g>
        <g
           id="g360"
           transform="translate(195.5824,118.5933)">
          <path
             d="m 0,0 0.304,0.581 78.052,-40.828 -0.303,-0.581 z"
             style="fill:#6f78b2;fill-opacity:1;fill-rule:nonzero;stroke:none"
             id="path362" />
        </g>
        <g
           id="g364"
           transform="translate(195.7846,118.9804)">
          <path
             d="m 0,0 0.304,0.581 78.053,-40.828 -0.304,-0.582 z"
             style="fill:#6f78b2;fill-opacity:1;fill-rule:nonzero;stroke:none"
             id="path366" />
        </g>
        <g
           id="g368"
           transform="translate(195.9872,119.3681)">
          <path
             d="m 0,0 0.304,0.581 78.053,-40.829 -0.303,-0.58 z"
             style="fill:#6f79b2;fill-opacity:1;fill-rule:nonzero;stroke:none"
             id="path370" />
        </g>
        <g
           id="g372"
           transform="translate(196.1895,119.7551)">
          <path
             d="m 0,0 0.305,0.581 78.052,-40.828 -0.303,-0.581 z"
             style="fill:#6f79b2;fill-opacity:1;fill-rule:nonzero;stroke:none"
             id="path374" />
        </g>
        <g
           id="g376"
           transform="translate(196.393,120.142)">
          <path
             d="m 0,0 0.303,0.581 78.053,-40.828 -0.303,-0.58 z"
             style="fill:#7079b3;fill-opacity:1;fill-rule:nonzero;stroke:none"
             id="path378" />
        </g>
        <g
           id="g380"
           transform="translate(196.5952,120.5297)">
          <path
             d="m 0,0 0.304,0.581 78.052,-40.829 -0.303,-0.579 z"
             style="fill:#7079b2;fill-opacity:1;fill-rule:nonzero;stroke:none"
             id="path382" />
        </g>
        <g
           id="g384"
           transform="translate(196.7978,120.9168)">
          <path
             d="m 0,0 0.303,0.581 78.053,-40.827 -0.303,-0.582 z"
             style="fill:#7079b2;fill-opacity:1;fill-rule:nonzero;stroke:none"
             id="path386" />
        </g>
        <g
           id="g388"
           transform="translate(197.0001,121.3046)">
          <path
             d="M 0,0 0.304,0.581 78.357,-40.247 78.053,-40.83 Z"
             style="fill:#6f79b3;fill-opacity:1;fill-rule:nonzero;stroke:none"
             id="path390" />
        </g>
        <g
           id="g392"
           transform="translate(197.2027,121.6915)">
          <path
             d="m 0,0 0.304,0.582 78.053,-40.83 -0.304,-0.58 z"
             style="fill:#6f79b3;fill-opacity:1;fill-rule:nonzero;stroke:none"
             id="path394" />
        </g>
        <g
           id="g396"
           transform="translate(197.4049,122.0784)">
          <path
             d="m 0,0 0.305,0.581 78.052,-40.827 -0.303,-0.582 z"
             style="fill:#6e7ab3;fill-opacity:1;fill-rule:nonzero;stroke:none"
             id="path398" />
        </g>
        <g
           id="g400"
           transform="translate(197.608,122.4662)">
          <path
             d="m 0,0 0.304,0.581 78.053,-40.828 -0.304,-0.581 z"
             style="fill:#6e7ab3;fill-opacity:1;fill-rule:nonzero;stroke:none"
             id="path402" />
        </g>
        <g
           id="g404"
           transform="translate(197.8107,122.8533)">
          <path
             d="m 0,0 0.304,0.582 78.053,-40.83 -0.304,-0.58 z"
             style="fill:#6e7ab3;fill-opacity:1;fill-rule:nonzero;stroke:none"
             id="path406" />
        </g>
        <g
           id="g408"
           transform="translate(198.0129,123.241)">
          <path
             d="m 0,0 0.304,0.581 78.053,-40.828 -0.303,-0.582 z"
             style="fill:#6f7cb4;fill-opacity:1;fill-rule:nonzero;stroke:none"
             id="path410" />
        </g>
        <g
           id="g412"
           transform="translate(198.2155,123.6279)">
          <path
             d="m 0,0 0.304,0.581 78.053,-40.828 -0.303,-0.581 z"
             style="fill:#6f7cb4;fill-opacity:1;fill-rule:nonzero;stroke:none"
             id="path414" />
        </g>
        <g
           id="g416"
           transform="translate(198.4178,124.0148)">
          <path
             d="m 0,0 0.305,0.581 78.052,-40.829 -0.303,-0.579 z"
             style="fill:#6f7cb4;fill-opacity:1;fill-rule:nonzero;stroke:none"
             id="path418" />
        </g>
        <g
           id="g420"
           transform="translate(198.6212,124.4026)">
          <path
             d="m 0,0 0.304,0.581 78.052,-40.828 -0.303,-0.582 z"
             style="fill:#6f7cb4;fill-opacity:1;fill-rule:nonzero;stroke:none"
             id="path422" />
        </g>
        <g
           id="g424"
           transform="translate(198.8235,124.7895)">
          <path
             d="m 0,0 0.304,0.581 78.052,-40.828 -0.303,-0.581 z"
             style="fill:#6e7cb5;fill-opacity:1;fill-rule:nonzero;stroke:none"
             id="path426" />
        </g>
        <g
           id="g428"
           transform="translate(199.0261,125.1773)">
          <path
             d="m 0,0 0.304,0.581 78.053,-40.828 -0.304,-0.581 z"
             style="fill:#6e7cb5;fill-opacity:1;fill-rule:nonzero;stroke:none"
             id="path430" />
        </g>
        <g
           id="g432"
           transform="translate(199.2284,125.5644)">
          <path
             d="m 0,0 0.304,0.582 78.053,-40.829 -0.304,-0.582 z"
             style="fill:#6e7cb4;fill-opacity:1;fill-rule:nonzero;stroke:none"
             id="path434" />
        </g>
        <g
           id="g436"
           transform="translate(199.431,125.9513)">
          <path
             d="m 0,0 0.304,0.581 78.053,-40.828 -0.303,-0.581 z"
             style="fill:#6d7db5;fill-opacity:1;fill-rule:nonzero;stroke:none"
             id="path438" />
        </g>
        <g
           id="g440"
           transform="translate(199.6332,126.339)">
          <path
             d="m 0,0 0.305,0.581 78.052,-40.828 -0.303,-0.581 z"
             style="fill:#6d7db5;fill-opacity:1;fill-rule:nonzero;stroke:none"
             id="path442" />
        </g>
        <g
           id="g444"
           transform="translate(199.8367,126.726)">
          <path
             d="m 0,0 0.303,0.581 78.054,-40.828 -0.304,-0.582 z"
             style="fill:#6d7eb5;fill-opacity:1;fill-rule:nonzero;stroke:none"
             id="path446" />
        </g>
        <g
           id="g448"
           transform="translate(200.039,127.1137)">
          <path
             d="m 0,0 0.304,0.581 78.052,-40.829 -0.303,-0.581 z"
             style="fill:#6e7eb5;fill-opacity:1;fill-rule:nonzero;stroke:none"
             id="path450" />
        </g>
        <g
           id="g452"
           transform="translate(200.2416,127.5008)">
          <path
             d="m 0,0 0.303,0.581 78.054,-40.828 -0.304,-0.581 z"
             style="fill:#6e7eb5;fill-opacity:1;fill-rule:nonzero;stroke:none"
             id="path454" />
        </g>
        <g
           id="g456"
           transform="translate(200.4438,127.8877)">
          <path
             d="m 0,0 0.304,0.581 78.053,-40.828 -0.304,-0.582 z"
             style="fill:#6e7fb6;fill-opacity:1;fill-rule:nonzero;stroke:none"
             id="path458" />
        </g>
        <g
           id="g460"
           transform="translate(200.6465,128.2755)">
          <path
             d="m 0,0 0.304,0.581 78.053,-40.829 -0.303,-0.58 z"
             style="fill:#6e7fb6;fill-opacity:1;fill-rule:nonzero;stroke:none"
             id="path462" />
        </g>
        <g
           id="g464"
           transform="translate(200.8495,128.6624)">
          <path
             d="m 0,0 0.304,0.581 78.052,-40.827 -0.303,-0.582 z"
             style="fill:#6e7fb6;fill-opacity:1;fill-rule:nonzero;stroke:none"
             id="path466" />
        </g>
        <g
           id="g468"
           transform="translate(201.0522,129.0501)">
          <path
             d="M 0,0 0.303,0.581 78.357,-40.247 78.053,-40.83 Z"
             style="fill:#6e7fb6;fill-opacity:1;fill-rule:nonzero;stroke:none"
             id="path470" />
        </g>
        <g
           id="g472"
           transform="translate(201.2544,129.4371)">
          <path
             d="m 0,0 0.304,0.582 78.053,-40.83 -0.304,-0.579 z"
             style="fill:#6d80b7;fill-opacity:1;fill-rule:nonzero;stroke:none"
             id="path474" />
        </g>
        <g
           id="g476"
           transform="translate(201.4571,129.8242)">
          <path
             d="m 0,0 0.303,0.581 78.054,-40.827 -0.303,-0.582 z"
             style="fill:#6d80b7;fill-opacity:1;fill-rule:nonzero;stroke:none"
             id="path478" />
        </g>
        <g
           id="g480"
           transform="translate(201.6593,130.2119)">
          <path
             d="m 0,0 0.305,0.581 78.052,-40.828 -0.303,-0.581 z"
             style="fill:#6d80b7;fill-opacity:1;fill-rule:nonzero;stroke:none"
             id="path482" />
        </g>
        <g
           id="g484"
           transform="translate(201.862,130.5997)">
          <path
             d="m 0,0 0.304,0.58 78.053,-40.827 -0.303,-0.581 z"
             style="fill:#6d80b7;fill-opacity:1;fill-rule:nonzero;stroke:none"
             id="path486" />
        </g>
        <g
           id="g488"
           transform="translate(202.065,130.9866)">
          <path
             d="m 0,0 0.304,0.581 78.052,-40.828 -0.303,-0.582 z"
             style="fill:#6d80b7;fill-opacity:1;fill-rule:nonzero;stroke:none"
             id="path490" />
        </g>
        <g
           id="g492"
           transform="translate(202.2673,131.3735)">
          <path
             d="m 0,0 0.304,0.581 78.053,-40.828 -0.304,-0.581 z"
             style="fill:#6d80b7;fill-opacity:1;fill-rule:nonzero;stroke:none"
             id="path494" />
        </g>
        <g
           id="g496"
           transform="translate(202.4699,131.7612)">
          <path
             d="m 0,0 0.304,0.581 78.053,-40.828 -0.304,-0.581 z"
             style="fill:#6d80b7;fill-opacity:1;fill-rule:nonzero;stroke:none"
             id="path498" />
        </g>
        <g
           id="g500"
           transform="translate(202.6721,132.1484)">
          <path
             d="m 0,0 0.304,0.581 78.053,-40.828 -0.303,-0.582 z"
             style="fill:#6d80b8;fill-opacity:1;fill-rule:nonzero;stroke:none"
             id="path502" />
        </g>
        <g
           id="g504"
           transform="translate(202.8748,132.5353)">
          <path
             d="m 0,0 0.305,0.581 78.052,-40.828 -0.303,-0.58 z"
             style="fill:#6c82b8;fill-opacity:1;fill-rule:nonzero;stroke:none"
             id="path506" />
        </g>
        <g
           id="g508"
           transform="translate(203.077,132.923)">
          <path
             d="m 0,0 0.305,0.581 78.052,-40.828 -0.303,-0.581 z"
             style="fill:#6c82b8;fill-opacity:1;fill-rule:nonzero;stroke:none"
             id="path510" />
        </g>
        <g
           id="g512"
           transform="translate(203.2805,133.3108)">
          <path
             d="M 0,0 0.304,0.58 78.357,-40.247 78.053,-40.83 Z"
             style="fill:#6c82b8;fill-opacity:1;fill-rule:nonzero;stroke:none"
             id="path514" />
        </g>
        <g
           id="g516"
           transform="translate(203.4827,133.6971)">
          <path
             d="m 0,0 0.304,0.582 78.053,-40.829 -0.303,-0.58 z"
             style="fill:#6c82b8;fill-opacity:1;fill-rule:nonzero;stroke:none"
             id="path518" />
        </g>
        <g
           id="g520"
           transform="translate(203.6854,134.0848)">
          <path
             d="m 0,0 0.304,0.581 78.053,-40.828 -0.303,-0.581 z"
             style="fill:#6c82b9;fill-opacity:1;fill-rule:nonzero;stroke:none"
             id="path522" />
        </g>
        <g
           id="g524"
           transform="translate(203.8876,134.4725)">
          <path
             d="m 0,0 0.305,0.58 78.052,-40.827 -0.303,-0.581 z"
             style="fill:#6c82b9;fill-opacity:1;fill-rule:nonzero;stroke:none"
             id="path526" />
        </g>
        <g
           id="g528"
           transform="translate(204.0911,134.8595)">
          <path
             d="m 0,0 0.303,0.581 78.053,-40.829 -0.303,-0.58 z"
             style="fill:#6c82b9;fill-opacity:1;fill-rule:nonzero;stroke:none"
             id="path530" />
        </g>
        <g
           id="g532"
           transform="translate(204.2933,135.2464)">
          <path
             d="m 0,0 0.304,0.581 78.052,-40.828 -0.303,-0.581 z"
             style="fill:#6c83ba;fill-opacity:1;fill-rule:nonzero;stroke:none"
             id="path534" />
        </g>
        <g
           id="g536"
           transform="translate(204.496,135.6341)">
          <path
             d="m 0,0 0.303,0.581 78.054,-40.828 -0.304,-0.581 z"
             style="fill:#6c83ba;fill-opacity:1;fill-rule:nonzero;stroke:none"
             id="path538" />
        </g>
        <g
           id="g540"
           transform="translate(204.6982,136.021)">
          <path
             d="m 0,0 0.304,0.581 78.053,-40.829 -0.303,-0.579 z"
             style="fill:#6b84b9;fill-opacity:1;fill-rule:nonzero;stroke:none"
             id="path542" />
        </g>
        <g
           id="g544"
           transform="translate(204.9008,136.4088)">
          <path
             d="m 0,0 0.303,0.58 78.054,-40.827 -0.303,-0.582 z"
             style="fill:#6a84ba;fill-opacity:1;fill-rule:nonzero;stroke:none"
             id="path546" />
        </g>
        <g
           id="g548"
           transform="translate(205.1031,136.7959)">
          <path
             d="m 0,0 0.305,0.581 78.052,-40.828 -0.303,-0.581 z"
             style="fill:#6a84ba;fill-opacity:1;fill-rule:nonzero;stroke:none"
             id="path550" />
        </g>
        <g
           id="g552"
           transform="translate(205.3066,137.1837)">
          <path
             d="m 0,0 0.303,0.581 78.054,-40.83 -0.304,-0.579 z"
             style="fill:#6a84ba;fill-opacity:1;fill-rule:nonzero;stroke:none"
             id="path554" />
        </g>
        <g
           id="g556"
           transform="translate(205.5088,137.5706)">
          <path
             d="m 0,0 0.304,0.581 78.053,-40.828 -0.303,-0.582 z"
             style="fill:#6a84ba;fill-opacity:1;fill-rule:nonzero;stroke:none"
             id="path558" />
        </g>
        <g
           id="g560"
           transform="translate(205.7114,137.9575)">
          <path
             d="m 0,0 0.303,0.581 78.054,-40.828 -0.303,-0.581 z"
             style="fill:#6b85bb;fill-opacity:1;fill-rule:nonzero;stroke:none"
             id="path562" />
        </g>
        <g
           id="g564"
           transform="translate(205.9137,138.3452)">
          <path
             d="m 0,0 0.305,0.581 78.052,-40.828 -0.303,-0.581 z"
             style="fill:#6b85bb;fill-opacity:1;fill-rule:nonzero;stroke:none"
             id="path566" />
        </g>
        <g
           id="g568"
           transform="translate(206.1163,138.7323)">
          <path
             d="m 0,0 0.303,0.581 78.054,-40.828 -0.303,-0.582 z"
             style="fill:#6b85bb;fill-opacity:1;fill-rule:nonzero;stroke:none"
             id="path570" />
        </g>
        <g
           id="g572"
           transform="translate(206.3194,139.1201)">
          <path
             d="m 0,0 0.304,0.58 78.052,-40.828 -0.303,-0.581 z"
             style="fill:#6a86bb;fill-opacity:1;fill-rule:nonzero;stroke:none"
             id="path574" />
        </g>
        <g
           id="g576"
           transform="translate(206.5216,139.507)">
          <path
             d="m 0,0 0.304,0.581 78.053,-40.83 -0.304,-0.579 z"
             style="fill:#6a86bb;fill-opacity:1;fill-rule:nonzero;stroke:none"
             id="path578" />
        </g>
        <g
           id="g580"
           transform="translate(206.7243,139.8939)">
          <path
             d="m 0,0 0.304,0.581 78.053,-40.828 -0.303,-0.582 z"
             style="fill:#6a87bc;fill-opacity:1;fill-rule:nonzero;stroke:none"
             id="path582" />
        </g>
        <g
           id="g584"
           transform="translate(206.9265,140.2817)">
          <path
             d="m 0,0 0.304,0.58 78.053,-40.828 -0.303,-0.579 z"
             style="fill:#6a87bc;fill-opacity:1;fill-rule:nonzero;stroke:none"
             id="path586" />
        </g>
        <g
           id="g588"
           transform="translate(207.1292,140.6688)">
          <path
             d="m 0,0 0.304,0.581 78.053,-40.828 -0.303,-0.581 z"
             style="fill:#6a87bc;fill-opacity:1;fill-rule:nonzero;stroke:none"
             id="path590" />
        </g>
        <g
           id="g592"
           transform="translate(207.3314,141.0565)">
          <path
             d="M 0,0 0.305,0.581 78.357,-40.247 78.054,-40.83 Z"
             style="fill:#6a88bc;fill-opacity:1;fill-rule:nonzero;stroke:none"
             id="path594" />
        </g>
        <g
           id="g596"
           transform="translate(207.5349,141.4426)">
          <path
             d="m 0,0 0.303,0.582 78.053,-40.829 -0.302,-0.58 z"
             style="fill:#6a88bc;fill-opacity:1;fill-rule:nonzero;stroke:none"
             id="path598" />
        </g>
        <g
           id="g600"
           transform="translate(207.7371,141.8304)">
          <path
             d="m 0,0 0.304,0.581 78.053,-40.828 -0.304,-0.581 z"
             style="fill:#6a88bc;fill-opacity:1;fill-rule:nonzero;stroke:none"
             id="path602" />
        </g>
        <g
           id="g604"
           transform="translate(207.9397,142.2181)">
          <path
             d="m 0,0 0.303,0.581 78.054,-40.828 -0.304,-0.581 z"
             style="fill:#6a88bc;fill-opacity:1;fill-rule:nonzero;stroke:none"
             id="path606" />
        </g>
        <g
           id="g608"
           transform="translate(208.142,142.605)">
          <path
             d="m 0,0 0.304,0.581 78.053,-40.829 -0.303,-0.579 z"
             style="fill:#6a89bd;fill-opacity:1;fill-rule:nonzero;stroke:none"
             id="path610" />
        </g>
        <g
           id="g612"
           transform="translate(208.3446,142.9928)">
          <path
             d="m 0,0 0.304,0.58 78.053,-40.827 -0.303,-0.582 z"
             style="fill:#6a89bd;fill-opacity:1;fill-rule:nonzero;stroke:none"
             id="path614" />
        </g>
        <g
           id="g616"
           transform="translate(208.5468,143.3791)">
          <path
             d="m 0,0 0.305,0.582 78.053,-40.829 -0.304,-0.581 z"
             style="fill:#6a89bd;fill-opacity:1;fill-rule:nonzero;stroke:none"
             id="path618" />
        </g>
        <g
           id="g620"
           transform="translate(208.7503,143.7668)">
          <path
             d="m 0,0 0.303,0.582 78.054,-40.83 -0.303,-0.58 z"
             style="fill:#6a8abe;fill-opacity:1;fill-rule:nonzero;stroke:none"
             id="path622" />
        </g>
        <g
           id="g624"
           transform="translate(208.9526,144.1537)">
          <path
             d="m 0,0 0.304,0.582 78.053,-40.828 -0.303,-0.582 z"
             style="fill:#6a8abe;fill-opacity:1;fill-rule:nonzero;stroke:none"
             id="path626" />
        </g>
        <g
           id="g628"
           transform="translate(209.1552,144.5415)">
          <path
             d="m 0,0 0.304,0.581 78.053,-40.828 -0.303,-0.581 z"
             style="fill:#6a8bbe;fill-opacity:1;fill-rule:nonzero;stroke:none"
             id="path630" />
        </g>
        <g
           id="g632"
           transform="translate(209.3575,144.9292)">
          <path
             d="m 0,0 0.305,0.581 78.052,-40.828 -0.304,-0.581 z"
             style="fill:#6a8bbe;fill-opacity:1;fill-rule:nonzero;stroke:none"
             id="path634" />
        </g>
        <g
           id="g636"
           transform="translate(209.5605,145.3163)">
          <path
             d="m 0,0 0.304,0.581 78.053,-40.828 -0.304,-0.582 z"
             style="fill:#698bbe;fill-opacity:1;fill-rule:nonzero;stroke:none"
             id="path638" />
        </g>
        <g
           id="g640"
           transform="translate(209.7632,145.7032)">
          <path
             d="m 0,0 0.304,0.582 78.053,-40.829 -0.304,-0.581 z"
             style="fill:#698cbf;fill-opacity:1;fill-rule:nonzero;stroke:none"
             id="path642" />
        </g>
        <g
           id="g644"
           transform="translate(209.9654,146.091)">
          <path
             d="m 0,0 0.304,0.581 78.053,-40.828 -0.304,-0.581 z"
             style="fill:#6a8cbe;fill-opacity:1;fill-rule:nonzero;stroke:none"
             id="path646" />
        </g>
        <g
           id="g648"
           transform="translate(210.168,146.4779)">
          <path
             d="m 0,0 0.304,0.581 78.053,-40.828 -0.303,-0.582 z"
             style="fill:#698cbf;fill-opacity:1;fill-rule:nonzero;stroke:none"
             id="path650" />
        </g>
        <g
           id="g652"
           transform="translate(210.3703,146.8657)">
          <path
             d="m 0,0 0.304,0.581 78.053,-40.829 -0.303,-0.581 z"
             style="fill:#698dbf;fill-opacity:1;fill-rule:nonzero;stroke:none"
             id="path654" />
        </g>
        <g
           id="g656"
           transform="translate(210.5729,147.2526)">
          <path
             d="m 0,0 0.305,0.581 78.053,-40.828 -0.304,-0.581 z"
             style="fill:#698ec0;fill-opacity:1;fill-rule:nonzero;stroke:none"
             id="path658" />
        </g>
        <g
           id="g660"
           transform="translate(210.776,147.6397)">
          <path
             d="m 0,0 0.304,0.582 78.053,-40.829 -0.304,-0.582 z"
             style="fill:#688fc0;fill-opacity:1;fill-rule:nonzero;stroke:none"
             id="path662" />
        </g>
        <g
           id="g664"
           transform="translate(210.9786,148.0266)">
          <path
             d="m 0,0 0.304,0.582 78.053,-40.829 -0.303,-0.581 z"
             style="fill:#688fc1;fill-opacity:1;fill-rule:nonzero;stroke:none"
             id="path666" />
        </g>
        <g
           id="g668"
           transform="translate(211.1809,148.4144)">
          <path
             d="m 0,0 0.305,0.581 78.052,-40.828 -0.303,-0.581 z"
             style="fill:#6890c1;fill-opacity:1;fill-rule:nonzero;stroke:none"
             id="path670" />
        </g>
        <g
           id="g672"
           transform="translate(211.3835,148.8021)">
          <path
             d="m 0,0 0.304,0.581 78.053,-40.828 -0.303,-0.582 z"
             style="fill:#6890c1;fill-opacity:1;fill-rule:nonzero;stroke:none"
             id="path674" />
        </g>
        <g
           id="g676"
           transform="translate(211.5866,149.189)">
          <path
             d="m 0,0 0.304,0.581 78.052,-40.828 -0.303,-0.581 z"
             style="fill:#6891c1;fill-opacity:1;fill-rule:nonzero;stroke:none"
             id="path678" />
        </g>
        <g
           id="g680"
           transform="translate(211.7892,149.5761)">
          <path
             d="m 0,0 0.303,0.582 78.054,-40.829 -0.304,-0.581 z"
             style="fill:#6892c2;fill-opacity:1;fill-rule:nonzero;stroke:none"
             id="path682" />
        </g>
        <g
           id="g684"
           transform="translate(211.9915,149.9639)">
          <path
             d="m 0,0 0.304,0.581 78.053,-40.828 -0.304,-0.581 z"
             style="fill:#6892c2;fill-opacity:1;fill-rule:nonzero;stroke:none"
             id="path686" />
        </g>
        <g
           id="g688"
           transform="translate(212.1941,150.3508)">
          <path
             d="m 0,0 0.303,0.581 78.054,-40.828 -0.303,-0.581 z"
             style="fill:#6693c4;fill-opacity:1;fill-rule:nonzero;stroke:none"
             id="path690" />
        </g>
        <g
           id="g692"
           transform="translate(212.3963,150.7377)">
          <path
             d="m 0,0 0.304,0.582 78.053,-40.829 -0.303,-0.581 z"
             style="fill:#6693c4;fill-opacity:1;fill-rule:nonzero;stroke:none"
             id="path694" />
        </g>
        <g
           id="g696"
           transform="translate(212.599,151.1255)">
          <path
             d="m 0,0 0.304,0.581 78.053,-40.828 -0.303,-0.581 z"
             style="fill:#6894c3;fill-opacity:1;fill-rule:nonzero;stroke:none"
             id="path698" />
        </g>
        <g
           id="g700"
           transform="translate(212.802,151.5126)">
          <path
             d="m 0,0 0.304,0.582 78.053,-40.829 -0.304,-0.581 z"
             style="fill:#6794c4;fill-opacity:1;fill-rule:nonzero;stroke:none"
             id="path702" />
        </g>
        <g
           id="g704"
           transform="translate(213.0047,151.8995)">
          <path
             d="m 0,0 0.303,0.582 78.054,-40.829 -0.304,-0.581 z"
             style="fill:#6695c4;fill-opacity:1;fill-rule:nonzero;stroke:none"
             id="path706" />
        </g>
        <g
           id="g708"
           transform="translate(213.2069,152.2872)">
          <path
             d="m 0,0 0.304,0.581 78.053,-40.828 -0.304,-0.581 z"
             style="fill:#6796c4;fill-opacity:1;fill-rule:nonzero;stroke:none"
             id="path710" />
        </g>
        <g
           id="g712"
           transform="translate(213.4096,152.675)">
          <path
             d="m 0,0 0.303,0.581 78.054,-40.828 -0.303,-0.581 z"
             style="fill:#6697c5;fill-opacity:1;fill-rule:nonzero;stroke:none"
             id="path714" />
        </g>
        <g
           id="g716"
           transform="translate(213.6127,153.0619)">
          <path
             d="m 0,0 0.303,0.581 78.053,-40.828 -0.303,-0.581 z"
             style="fill:#6697c5;fill-opacity:1;fill-rule:nonzero;stroke:none"
             id="path718" />
        </g>
        <g
           id="g720"
           transform="translate(213.8145,153.4488)">
          <path
             d="m 0,0 0.304,0.582 78.053,-40.829 -0.303,-0.581 z"
             style="fill:#6698c5;fill-opacity:1;fill-rule:nonzero;stroke:none"
             id="path722" />
        </g>
        <g
           id="g724"
           transform="translate(214.0175,153.8366)">
          <path
             d="m 0,0 0.304,0.581 78.053,-40.828 -0.304,-0.581 z"
             style="fill:#6698c5;fill-opacity:1;fill-rule:nonzero;stroke:none"
             id="path726" />
        </g>
        <g
           id="g728"
           transform="translate(214.2198,154.2237)">
          <path
             d="m 0,0 0.304,0.581 78.053,-40.828 -0.303,-0.581 z"
             style="fill:#6599c6;fill-opacity:1;fill-rule:nonzero;stroke:none"
             id="path730" />
        </g>
        <g
           id="g732"
           transform="translate(214.4224,154.6114)">
          <path
             d="m 0,0 0.304,0.581 78.053,-40.828 -0.303,-0.581 z"
             style="fill:#6599c6;fill-opacity:1;fill-rule:nonzero;stroke:none"
             id="path734" />
        </g>
        <g
           id="g736"
           transform="translate(214.6246,154.9983)">
          <path
             d="m 0,0 0.305,0.581 78.052,-40.828 -0.303,-0.581 z"
             style="fill:#649ac6;fill-opacity:1;fill-rule:nonzero;stroke:none"
             id="path738" />
        </g>
        <g
           id="g740"
           transform="translate(214.8281,155.3853)">
          <path
             d="m 0,0 0.304,0.582 78.052,-40.829 -0.303,-0.581 z"
             style="fill:#659bc7;fill-opacity:1;fill-rule:nonzero;stroke:none"
             id="path742" />
        </g>
        <g
           id="g744"
           transform="translate(215.0303,155.773)">
          <path
             d="m 0,0 0.304,0.581 78.052,-40.828 -0.303,-0.581 z"
             style="fill:#649bc8;fill-opacity:1;fill-rule:nonzero;stroke:none"
             id="path746" />
        </g>
        <g
           id="g748"
           transform="translate(215.233,156.1601)">
          <path
             d="m 0,0 0.304,0.581 78.053,-40.828 -0.304,-0.581 z"
             style="fill:#639cc7;fill-opacity:1;fill-rule:nonzero;stroke:none"
             id="path750" />
        </g>
        <g
           id="g752"
           transform="translate(215.4352,156.5479)">
          <path
             d="m 0,0 0.304,0.581 78.053,-40.828 -0.303,-0.581 z"
             style="fill:#659dc8;fill-opacity:1;fill-rule:nonzero;stroke:none"
             id="path754" />
        </g>
        <g
           id="g756"
           transform="translate(215.6379,156.9348)">
          <path
             d="m 0,0 0.304,0.581 78.053,-40.828 -0.303,-0.581 z"
             style="fill:#649ec9;fill-opacity:1;fill-rule:nonzero;stroke:none"
             id="path758" />
        </g>
        <g
           id="g760"
           transform="translate(215.8401,157.3217)">
          <path
             d="m 0,0 0.305,0.582 78.052,-40.829 -0.303,-0.581 z"
             style="fill:#639ec9;fill-opacity:1;fill-rule:nonzero;stroke:none"
             id="path762" />
        </g>
        <g
           id="g764"
           transform="translate(216.0436,157.7094)">
          <path
             d="m 0,0 0.303,0.581 78.053,-40.828 -0.303,-0.581 z"
             style="fill:#629fc9;fill-opacity:1;fill-rule:nonzero;stroke:none"
             id="path766" />
        </g>
        <g
           id="g768"
           transform="translate(216.2458,158.0966)">
          <path
             d="m 0,0 0.304,0.581 78.053,-40.828 -0.304,-0.581 z"
             style="fill:#639fca;fill-opacity:1;fill-rule:nonzero;stroke:none"
             id="path770" />
        </g>
        <g
           id="g772"
           transform="translate(216.4485,158.4843)">
          <path
             d="m 0,0 0.303,0.581 78.054,-40.828 -0.303,-0.581 z"
             style="fill:#63a0ca;fill-opacity:1;fill-rule:nonzero;stroke:none"
             id="path774" />
        </g>
        <g
           id="g776"
           transform="translate(216.6507,158.8712)">
          <path
             d="m 0,0 0.305,0.581 78.052,-40.828 -0.303,-0.581 z"
             style="fill:#62a0ca;fill-opacity:1;fill-rule:nonzero;stroke:none"
             id="path778" />
        </g>
        <g
           id="g780"
           transform="translate(216.8533,159.259)">
          <path
             d="m 0,0 0.304,0.581 78.053,-40.829 -0.303,-0.581 z"
             style="fill:#61a1cb;fill-opacity:1;fill-rule:nonzero;stroke:none"
             id="path782" />
        </g>
        <g
           id="g784"
           transform="translate(217.0564,159.6459)">
          <path
             d="m 0,0 0.304,0.581 78.052,-40.828 -0.303,-0.581 z"
             style="fill:#61a2cb;fill-opacity:1;fill-rule:nonzero;stroke:none"
             id="path786" />
        </g>
        <g
           id="g788"
           transform="translate(217.2587,160.0328)">
          <path
             d="m 0,0 0.304,0.581 78.053,-40.828 -0.304,-0.581 z"
             style="fill:#61a2cb;fill-opacity:1;fill-rule:nonzero;stroke:none"
             id="path790" />
        </g>
        <g
           id="g792"
           transform="translate(217.4613,160.4205)">
          <path
             d="m 0,0 0.304,0.581 78.053,-40.828 -0.304,-0.581 z"
             style="fill:#60a3cc;fill-opacity:1;fill-rule:nonzero;stroke:none"
             id="path794" />
        </g>
        <g
           id="g796"
           transform="translate(217.6635,160.8077)">
          <path
             d="m 0,0 0.304,0.581 78.053,-40.828 -0.303,-0.581 z"
             style="fill:#60a4cc;fill-opacity:1;fill-rule:nonzero;stroke:none"
             id="path798" />
        </g>
        <g
           id="g800"
           transform="translate(217.8662,161.1954)">
          <path
             d="m 0,0 0.305,0.581 78.052,-40.829 -0.303,-0.581 z"
             style="fill:#60a4cd;fill-opacity:1;fill-rule:nonzero;stroke:none"
             id="path802" />
        </g>
        <g
           id="g804"
           transform="translate(218.0684,161.5823)">
          <path
             d="m 0,0 0.305,0.581 78.052,-40.828 -0.303,-0.581 z"
             style="fill:#60a5cd;fill-opacity:1;fill-rule:nonzero;stroke:none"
             id="path806" />
        </g>
        <g
           id="g808"
           transform="translate(218.2719,161.9692)">
          <path
             d="m 0,0 0.304,0.581 78.052,-40.828 -0.303,-0.581 z"
             style="fill:#5fa5ce;fill-opacity:1;fill-rule:nonzero;stroke:none"
             id="path810" />
        </g>
        <g
           id="g812"
           transform="translate(218.4741,162.357)">
          <path
             d="m 0,0 0.304,0.581 78.053,-40.828 -0.304,-0.581 z"
             style="fill:#5ea5ce;fill-opacity:1;fill-rule:nonzero;stroke:none"
             id="path814" />
        </g>
        <g
           id="g816"
           transform="translate(218.6768,162.7441)">
          <path
             d="m 0,0 0.304,0.581 78.053,-40.828 -0.304,-0.581 z"
             style="fill:#5ea7ce;fill-opacity:1;fill-rule:nonzero;stroke:none"
             id="path818" />
        </g>
        <g
           id="g820"
           transform="translate(218.879,163.1319)">
          <path
             d="m 0,0 0.305,0.581 78.052,-40.829 -0.303,-0.581 z"
             style="fill:#5ea7ce;fill-opacity:1;fill-rule:nonzero;stroke:none"
             id="path822" />
        </g>
        <g
           id="g824"
           transform="translate(219.0825,163.5188)">
          <path
             d="m 0,0 0.303,0.581 78.053,-40.828 -0.303,-0.581 z"
             style="fill:#5fa8cf;fill-opacity:1;fill-rule:nonzero;stroke:none"
             id="path826" />
        </g>
        <g
           id="g828"
           transform="translate(219.2847,163.9057)">
          <path
             d="m 0,0 0.304,0.581 78.052,-40.828 -0.303,-0.581 z"
             style="fill:#5fa8cf;fill-opacity:1;fill-rule:nonzero;stroke:none"
             id="path830" />
        </g>
        <g
           id="g832"
           transform="translate(219.4874,164.2934)">
          <path
             d="m 0,0 0.303,0.581 78.053,-40.828 -0.303,-0.581 z"
             style="fill:#5da9cf;fill-opacity:1;fill-rule:nonzero;stroke:none"
             id="path834" />
        </g>
        <g
           id="g836"
           transform="translate(219.6896,164.6803)">
          <path
             d="m 0,0 0.304,0.581 78.053,-40.828 -0.304,-0.581 z"
             style="fill:#5eaad0;fill-opacity:1;fill-rule:nonzero;stroke:none"
             id="path838" />
        </g>
        <g
           id="g840"
           transform="translate(219.8922,165.0683)">
          <path
             d="m 0,0 0.304,0.581 78.053,-40.829 -0.303,-0.581 z"
             style="fill:#5dabd1;fill-opacity:1;fill-rule:nonzero;stroke:none"
             id="path842" />
        </g>
        <g
           id="g844"
           transform="translate(220.0945,165.4552)">
          <path
             d="m 0,0 0.305,0.581 78.052,-40.828 -0.303,-0.581 z"
             style="fill:#5cabd0;fill-opacity:1;fill-rule:nonzero;stroke:none"
             id="path846" />
        </g>
        <g
           id="g848"
           transform="translate(220.298,165.8421)">
          <path
             d="m 0,0 0.303,0.581 78.053,-40.828 -0.303,-0.581 z"
             style="fill:#5dacd1;fill-opacity:1;fill-rule:nonzero;stroke:none"
             id="path850" />
        </g>
        <g
           id="g852"
           transform="translate(220.5002,166.2299)">
          <path
             d="m 0,0 0.304,0.581 78.052,-40.828 -0.303,-0.581 z"
             style="fill:#5dacd1;fill-opacity:1;fill-rule:nonzero;stroke:none"
             id="path854" />
        </g>
        <g
           id="g856"
           transform="translate(220.7028,166.6168)">
          <path
             d="m 0,0 0.087,0.168 78.054,-40.829 -0.088,-0.167 z"
             style="fill:#5dacd2;fill-opacity:1;fill-rule:nonzero;stroke:none"
             id="path858" />
        </g>
      </g>
    </g>
    <g
       id="g860">
      <g
         id="g862"
         clip-path="url(#clipPath866)">
        <g
           id="g868"
           transform="translate(276.6117,113.5963)">
          <path
             d="m 0,0 c -0.676,-0.179 -1.211,-0.342 -1.755,-0.462 -2.9,-0.64 -5.686,-0.107 -8.413,0.877 -2.189,0.789 -4.347,1.664 -6.542,2.435 -1.868,0.656 -3.804,1.004 -5.788,0.707 -2.885,-0.431 -5.355,-1.737 -7.457,-3.738 -0.643,-0.612 -1.212,-1.301 -1.85,-1.936 0.06,0.104 0.111,0.215 0.182,0.312 2.226,3.025 5.129,5.035 8.832,5.797 2.001,0.412 3.988,0.165 5.908,-0.44 2.107,-0.664 4.175,-1.452 6.263,-2.175 2.209,-0.766 4.446,-1.378 6.822,-1.228 1.53,0.096 2.979,0.489 4.359,1.148 0.18,0.086 0.366,0.158 0.552,0.23 0.04,0.016 0.09,0.006 0.264,0.014 C 1.033,0.333 0.755,-0.845 0.362,-1.983 -0.7,-5.055 -2.17,-7.919 -4.302,-10.396 c -3.651,-4.242 -8.188,-6.597 -13.893,-6.339 -2.32,0.105 -4.518,0.774 -6.629,1.705 -1.702,0.75 -3.373,1.574 -5.052,2.377 -1.903,0.91 -3.768,0.697 -5.297,-0.762 -0.761,-0.727 -1.392,-1.599 -2.027,-2.446 -0.467,-0.623 -1.037,-0.863 -1.608,-0.543 -0.564,0.316 -0.704,0.905 -0.389,1.603 1.729,3.838 4.613,6.531 8.336,8.378 2.507,1.244 5.118,2.155 7.945,2.288 2.025,0.096 4.002,-0.264 5.986,-0.619 1.745,-0.312 3.508,-0.555 5.273,-0.722 0.794,-0.074 1.614,0.113 2.436,0.144 -0.47,-0.089 -0.938,-0.2 -1.411,-0.263 -2.281,-0.304 -4.507,0.129 -6.73,0.539 -3.306,0.61 -6.582,0.675 -9.786,-0.511 -3.426,-1.268 -6.599,-2.966 -8.916,-5.883 -0.88,-1.108 -1.515,-2.412 -2.251,-3.633 -0.074,-0.123 -0.076,-0.291 -0.112,-0.438 0.048,-0.028 0.097,-0.057 0.145,-0.086 0.118,0.128 0.239,0.252 0.352,0.384 0.782,0.921 1.47,1.948 2.362,2.744 1.62,1.445 3.559,1.767 5.586,0.977 1.297,-0.506 2.529,-1.18 3.792,-1.774 2.493,-1.173 5.04,-2.181 7.826,-2.374 4.427,-0.307 8.238,1.178 11.499,4.111 3.04,2.735 4.988,6.187 6.355,9.996 C -0.34,-1.069 -0.193,-0.586 0,0"
             style="fill:#009348;fill-opacity:1;fill-rule:nonzero;stroke:none"
             id="path870" />
        </g>
      </g>
    </g>
  </g>
</svg>
