<?xml version="1.0" encoding="UTF-8"?> <svg xmlns="http://www.w3.org/2000/svg" xmlns:xlink="http://www.w3.org/1999/xlink" id="Layer_1" data-name="Layer 1" viewBox="0 0 382.88 179.14"><defs><style> .cls-1 { fill: #7073b0; } .cls-2 { fill: #7079b2; } .cls-3 { fill: #6a8bbe; } .cls-4 { fill: #726eac; } .cls-5 { fill: #6e7eb5; } .cls-6 { fill: #5da9cf; } .cls-7 { fill: #745fa5; } .cls-8 { fill: #63a0ca; } .cls-9 { fill: #5eaad0; } .cls-10 { fill: #5dacd1; } .cls-11 { fill: #6a89bd; } .cls-12 { fill: #6a87bc; } .cls-13 { fill: #fff; } .cls-14 { fill: #6f79b3; } .cls-15 { fill: #60a4cd; } .cls-16 { fill: #5fa5ce; } .cls-17 { fill: #698cbf; } .cls-18 { fill: #6a84ba; } .cls-19 { fill: #6d7db5; } .cls-20 { fill: #7071ae; } .cls-21 { fill: #6e7fb6; } .cls-22 { fill: #7175b0; } .cls-23 { fill: #7170ad; } .cls-24 { fill: #6794c4; } .cls-25 { fill: #6b85bb; } .cls-26 { fill: #60a3cc; } .cls-27 { fill: #745ea6; } .cls-28 { fill: #7363a8; } .cls-29 { fill: #639cc7; } .cls-30 { fill: #6f79b2; } .cls-31 { fill: #698dbf; } .cls-32 { fill: #7268a9; } .cls-33 { fill: #698ec0; } .cls-34 { fill: #6695c4; } .cls-35 { fill: #6c82b8; } .cls-36 { fill: #6796c4; } .cls-37 { fill: #7361a7; } .cls-38 { fill: #639ec9; } .cls-39 { fill: #7366a8; } .cls-40 { fill: #7461a6; } .cls-41 { fill: #5fa8cf; } .cls-42 { fill: #6a8cbe; } .cls-43 { fill: #649ec9; } .cls-44 { fill: #6d80b8; } .cls-45 { fill: #6697c5; } .cls-46 { fill: #5ea7ce; } .cls-47 { fill: #62a0ca; } .cls-48 { fill: #649bc8; } .cls-49 { fill: #6f78b2; } .cls-50 { fill: #6e7cb4; } .cls-51 { fill: #7073af; } .cls-52 { fill: #6a86bb; } .cls-53 { fill: #5dabd1; } .cls-54 { fill: #6693c4; } .cls-55 { fill: #6f7cb4; } .cls-56 { fill: #7072ae; } .cls-57 { fill: #7462a7; } .cls-58 { fill: #659dc8; } .cls-59 { fill: #6e7ab3; } .cls-60 { fill: #61a2cb; } .cls-61 { fill: #6698c5; } .cls-62 { fill: #6894c3; } .cls-63 { fill: #7172af; } .cls-64 { fill: #6d7eb5; } .cls-65 { fill: #698bbe; } .cls-66 { fill: #649ac6; } .cls-67 { fill: #7176b1; } .cls-68 { fill: #716dab; } .cls-69 { fill: #6890c1; } .cls-70 { fill: #6599c6; } .cls-71 { fill: #6e7cb5; } .cls-72 { fill: #6d80b7; } .cls-73 { fill: #688fc0; } .cls-74 { fill: #6b84b9; } .cls-75 { fill: #6a88bc; } .cls-76 { clip-path: url(#clippath); } .cls-77 { fill: #009348; } .cls-78 { fill: #726fad; } .cls-79 { fill: #60a5cd; } .cls-80 { fill: #6a8abe; } .cls-81 { fill: none; } .cls-82 { fill: #7367aa; } .cls-83 { fill: #60a4cc; } .cls-84 { fill: #736aaa; } .cls-85 { fill: #629fc9; } .cls-86 { fill: #7461a8; } .cls-87 { fill: #7365a8; } .cls-88 { fill: #6c82b9; } .cls-89 { fill: #5dacd2; } .cls-90 { fill: #639fca; } .cls-91 { fill: #61a1cb; } .cls-92 { fill: #7365a7; } .cls-93 { fill: #755ea5; } .cls-94 { fill: #5ea5ce; } .cls-95 { fill: #7079b3; } .cls-96 { fill: #735fa8; } .cls-97 { fill: #6891c1; } .cls-98 { fill: #688fc1; } .cls-99 { fill: #726cab; } .cls-100 { fill: #7464a7; } .cls-101 { fill: #6c83ba; } .cls-102 { fill: #659bc7; } .cls-103 { fill: #7077b1; } .cls-104 { fill: #5cabd0; } .cls-105 { fill: #6892c2; } </style><clipPath id="clippath"><path class="cls-81" d="m116.29,96.44c1.94-.39,3.77-1.47,4.09-2.33.34-.71-.79-.88-2.53-.44-1.64.48-3.37,1.34-3.93,2.01-.52.81.54,1.18,2.36.76m8.72-1.28c2.1-.15,3.85-1.07,3.96-1.97.08-.74-1.38-1.14-3.28-.97-1.85.23-3.6.93-3.87,1.65-.3.88,1.12,1.49,3.19,1.29Zm8.73.95c2.1.09,3.67-.63,3.51-1.52-.2-.74-1.86-1.35-3.76-1.45-1.9-.04-3.52.46-3.54,1.21-.05.9,1.66,1.73,3.8,1.77Zm9.66-.41c1.97.32,3.21-.17,2.8-1.02-.4-.69-2.16-1.48-3.95-1.85-1.8-.3-3.13-.02-2.91.71.22.89,2.02,1.89,4.06,2.17Zm8.17,1.79c1.69.55,2.49.29,1.84-.49-.66-.63-2.35-1.56-3.82-2.16-1.58-.56-2.52-.53-2.05.17.45.84,2.25,1.98,4.03,2.48Zm-48.38,6.89c1.53-.61,3.27-2.16,3.84-3.42.61-1.13-.07-1.42-1.41-.74-1.26.74-2.85,2.12-3.58,3.13-.71,1.14-.22,1.63,1.15,1.04Zm7.48-1.54c1.94-.42,3.86-1.93,4.25-3.3.38-1.21-.74-1.75-2.51-1.26-1.69.54-3.45,1.83-4.04,3-.53,1.27.46,2.01,2.3,1.55Zm29.4-1.71c2.25.17,3.84-.89,3.6-2.3-.25-1.27-2.12-2.4-4.19-2.6-2.1-.15-3.75.71-3.66,2.01.06,1.43,1.96,2.77,4.26,2.9Zm17.08,2c1.63.54,2.42-.06,1.78-1.28-.67-1.1-2.37-2.44-3.82-3.07-1.59-.6-2.51-.19-2,1,.48,1.32,2.31,2.85,4.05,3.35Zm6.34,2.64c1.15.71,1.34.32.55-.75-.81-.93-2.23-2.31-3.22-3.12-1.12-.78-1.54-.62-.85.45.66,1.2,2.28,2.78,3.52,3.42Zm-64.31,5.73c1.38-.52,2.99-2.33,3.52-3.97.55-1.52-.07-2.19-1.32-1.55-1.16.7-2.55,2.32-3.24,3.74-.63,1.5-.18,2.3,1.05,1.78Zm28.9-3.8c2.43-.1,4.47-1.79,4.53-3.71.04-1.8-1.76-3.11-4.06-2.98-2.27.17-4.23,1.68-4.44,3.46-.22,1.9,1.55,3.37,3.98,3.23Zm12.62,1.53c2.31.21,3.91-1.17,3.64-3.02-.32-1.75-2.29-3.32-4.43-3.58-2.21-.23-3.93.98-3.76,2.77.14,1.9,2.19,3.65,4.55,3.83Zm18.75,2.47c1.52.49,2.23-.45,1.64-2.06-.61-1.48-2.16-3.11-3.56-3.72-1.54-.6-2.4.19-1.92,1.79.47,1.73,2.21,3.53,3.85,3.99Zm8.95,1.11c.94.59,1.08-.1.41-1.48-.73-1.31-1.95-2.92-2.78-3.66-1.01-.75-1.33-.19-.7,1.27.59,1.56,2.01,3.34,3.07,3.88Zm-74.78,6.46c1.15-.4,2.5-2.26,2.94-4.17.48-1.81-.08-2.75-1.17-2.18-.94.59-2.08,2.34-2.62,3.95-.52,1.75-.16,2.81.84,2.4Zm6.18-.42c1.72-.31,3.46-2.29,3.8-4.36.35-1.95-.72-3.16-2.36-2.7-1.5.46-3.06,2.32-3.52,4.16-.41,1.9.49,3.24,2.09,2.89Zm18.18-3.19c2.47-.13,4.57-2.1,4.67-4.37.12-2.18-1.72-3.76-4.07-3.59-2.3.21-4.33,2.06-4.54,4.17-.22,2.22,1.53,3.94,3.95,3.79Zm-24.42,40.31c.78.61,1.05-.23.53-1.93-.47-1.78-1.62-3.63-2.45-4.05-.69-.44-.75.51-.2,2.14.59,1.52,1.51,3.22,2.12,3.84Zm4.29,6.58c.98.72,1.33.19.69-1.27-.59-1.56-2.02-3.34-3.1-3.91-.94-.59-1.08.1-.38,1.52.74,1.31,1.93,2.89,2.79,3.66Zm5.22,2.93c1.51.57,2.4-.2,1.89-1.82-.45-1.71-2.21-3.53-3.85-3.99-1.52-.49-2.2.49-1.64,2.06.61,1.48,2.19,3.14,3.6,3.75Zm8.28,0c1.93.41,3.3-.59,2.96-2.3-.32-1.84-2.29-3.64-4.37-3.98-1.98-.36-3.17.84-2.75,2.57.46,1.63,2.3,3.27,4.15,3.71Zm13.01-4.31c2.33.03,4.25-1.36,4.26-3.16.02-1.92-1.95-3.55-4.43-3.58-2.45-.06-4.35,1.5-4.22,3.42.12,1.79,2.07,3.25,4.39,3.32Zm20.26,5.08c2.01-.35,3.93-1.96,4.33-3.66.36-1.81-1.07-3.09-3.25-2.79-2.23.25-4.25,2.02-4.47,3.9-.26,1.77,1.28,2.88,3.39,2.55Zm11.35-2.3c1.63-.53,3.36-2.18,3.91-3.75.5-1.66-.48-2.72-2.25-2.3-1.86.38-3.73,2.19-4.13,3.99-.41,1.67.73,2.56,2.47,2.06Zm7.99-2.06c1.13-.67,2.54-2.32,3.21-3.71.63-1.5.2-2.34-1.05-1.78-1.35.49-2.96,2.3-3.49,3.95-.58,1.55.05,2.22,1.33,1.54Zm-60.92,6.43c1.12.78,1.54.62.85-.45-.66-1.2-2.28-2.77-3.55-3.45-1.12-.68-1.34-.31-.55.75.84.97,2.23,2.31,3.26,3.15Zm5.72,3.11c1.59.6,2.51.19,2-1-.48-1.32-2.34-2.87-4.09-3.37-1.63-.54-2.38.09-1.74,1.31.64,1.07,2.34,2.42,3.83,3.06Zm7.57,1.22c1.9.37,3.27-.26,2.94-1.53-.28-1.4-2.21-2.85-4.3-3.17-2.01-.36-3.27.48-2.79,1.83.44,1.18,2.29,2.44,4.15,2.88Zm8.37-1.44c2.1.15,3.74-.71,3.7-2.01-.1-1.44-2-2.77-4.29-2.9-2.25-.17-3.84.9-3.6,2.3.25,1.27,2.12,2.4,4.19,2.6Zm18.56,2.49c1.97-.32,3.84-1.52,4.2-2.75.37-1.39-1.05-2.35-3.2-2.07-2.22.24-4.17,1.64-4.35,3.06-.17,1.28,1.32,2.04,3.36,1.77Zm8.47-2.88c1.69-.55,3.48-1.86,4.04-3,.56-1.29-.46-2.01-2.31-1.55-1.94.43-3.82,1.92-4.21,3.28-.42,1.23.74,1.75,2.48,1.27Zm6.52-.89c1.26-.74,2.81-2.09,3.58-3.13.71-1.14.21-1.63-1.18-1.01-1.5.58-3.26,2.16-3.84,3.42-.6,1.13.07,1.42,1.44.72Zm-43.96,5.44c1.58.55,2.48.51,2.05-.17-.45-.84-2.29-1.99-4.03-2.48-1.69-.55-2.49-.29-1.87.47.66.63,2.35,1.56,3.86,2.17Zm7.3,1.99c1.85.31,3.13.02,2.91-.71-.18-.88-2.02-1.89-4.02-2.16-2.01-.33-3.21.18-2.84,1.02.44.7,2.2,1.49,3.95,1.85Zm8.14.88c1.94.04,3.52-.46,3.54-1.21.05-.9-1.62-1.73-3.76-1.76-2.14-.09-3.71.63-3.5,1.53.16.74,1.82,1.34,3.72,1.44Zm8.42-.29c1.85-.23,3.6-.93,3.91-1.66.26-.87-1.16-1.48-3.23-1.28-2.06.15-3.85,1.07-3.95,1.97-.08.74,1.42,1.13,3.28.97Zm7.83-1.45c1.64-.48,3.41-1.36,3.93-2.02.52-.81-.5-1.2-2.36-.76-1.9.38-3.73,1.46-4.09,2.34-.34.71.83.87,2.53.44Zm-22.41,1.89c1.66.32,3.35.54,5.07.67.44.02.7,0,.66-.08-.11-.29-1.69-.73-3.55-.9-1.85-.23-3.08-.13-2.78.14.12.05.34.11.59.17m-7.66-2.2c1.9.74,3.87,1.35,5.89,1.83h0s0-.02-.03-.05c-.39-.27-2.08-.9-3.78-1.33-1.39-.41-2.18-.55-2.08-.45Zm-4.88-2.25c.99.53,2.01,1.03,3.05,1.49-.76-.36-1.83-.88-2.73-1.33-.12-.06-.19-.1-.32-.16Zm-6.4-4.2c1.51,1.19,3.1,2.28,4.76,3.27.39.2.4.1-.03-.3-.67-.75-2.35-1.99-3.72-2.69-1.07-.62-1.46-.7-1-.28Zm-12.39-53.87c-.76,1.57-1.43,3.19-2.01,4.85-.16.55-.16.78.07.49.51-.47,1.39-2.23,1.91-3.9.57-1.61.6-2.33.15-1.67-.04.08-.08.15-.13.23Zm1.29-2.45c-.46.9-.48,1.24.07.69.77-.61,1.99-2.35,2.63-3.8.7-1.37.64-1.8-.05-1-.97,1.28-1.86,2.71-2.65,4.11Zm7.91-10.16c-1.41,1.35-2.72,2.79-3.94,4.31-.24.35-.07.3.5-.19,1-.76,2.45-2.32,3.18-3.44.56-.74.63-.98.27-.68Zm9.66-7.01c-.97.52-1.91,1.07-2.83,1.66-.31.23-.57.44-.79.6-.73.72-.16.85,1.33.2,1.56-.58,3.34-1.79,3.9-2.59.56-.64-.13-.57-1.52.1l-.09.03Zm14.03-4.69c-1.92.3-3.8.72-5.63,1.25h0c-.08.03-.12.05-.17.06-.43.24.57.23,2.37-.14,1.81-.3,3.44-.84,3.71-1.13.08-.06-.01-.07-.27-.05Zm7.19-.51c-.14,0-.28,0-.42,0-1.45,0-2.87.07-4.28.21-.52.06-.82.13-.95.2-.19.28,1.2.5,3.1.4,1.91-.04,3.39-.38,3.35-.67,0-.08-.33-.12-.8-.14Zm7.94.79c-1.66-.32-3.35-.55-5.07-.67h0c-.44-.02-.71,0-.67.08.11.29,1.74.74,3.59.91,1.86.24,3.04.12,2.73-.14-.08-.05-.29-.1-.59-.17Zm7.7,2.22c-1.91-.75-3.9-1.37-5.93-1.85,0,.01,0,.02.08.06.34.26,2.07.91,3.77,1.34,1.35.4,2.18.56,2.08.45h0Zm11.24,6.45c-1.5-1.18-3.07-2.27-4.72-3.25-.39-.2-.44-.13,0,.27.66.75,2.38,2.02,3.72,2.7,1.1.65,1.46.7,1,.28Zm8.27,60.79c.86-1.22,1.67-2.49,2.41-3.79.46-.9.48-1.24-.05-.73-.77.62-2.01,2.39-2.65,3.84-.7,1.37-.62,1.77.06,1,.08-.11.16-.21.24-.32Zm-5.09,5.66c1.42-1.36,2.74-2.81,3.97-4.34.21-.32.07-.31-.52.22-.97.73-2.45,2.32-3.18,3.44-.56.74-.63.98-.27.69Zm-9.62,7c.96-.52,1.9-1.07,2.81-1.65.3-.23.56-.44.76-.59.73-.72.2-.87-1.29-.23-1.59.61-3.38,1.81-3.94,2.61-.56.64.13.57,1.56-.12.03-.01.06-.02.09-.03Zm-14.07,4.72c1.94-.3,3.83-.73,5.68-1.27.04-.02.08-.03.12-.05.43-.24-.57-.23-2.32.13-1.81.31-3.48.86-3.7,1.14-.08.06.01.07.23.05Zm-40.33-47.48c1.72-.32,3.46-2.29,3.8-4.36.35-1.95-.72-3.16-2.36-2.7-1.5.46-3.06,2.32-3.52,4.16-.41,1.9.48,3.24,2.09,2.89Zm-7.92-2.89c1.11-.5,2.28-2.48,2.55-4.42.31-1.84-.33-2.74-1.36-2.07-.88.68-1.86,2.52-2.25,4.17-.36,1.79.09,2.81,1.06,2.32Zm7.67,12.41c-.39-1.99-1.96-3.94-3.4-4.28-1.33-.4-1.96.83-1.5,2.64.5,1.73,1.87,3.56,3.11,4.08,1.38.52,2.21-.57,1.79-2.45Zm-8.18,5.27c-.73-1.69-.97-3.86-.57-4.7.27-.77.9-.06,1.48,1.56.47,1.56.8,3.46.7,4.33-.23.96-.97.46-1.61-1.19Zm-1.56-10.13c-.32-1.82-.07-3.98.51-4.7.44-.69.89.15,1.09,1.85.11,1.62,0,3.56-.3,4.37-.44.88-1.05.23-1.29-1.52Zm16.38,11.03l-5.15,5.88c.27.52.47,1.08.58,1.64.41,1.88-.41,2.97-1.79,2.45-1.24-.52-2.61-2.35-3.11-4.08-.46-1.81.17-3.04,1.5-2.64.58.13,1.18.53,1.72,1.09l4.77-5.44c-.49-.65-.74-1.48-.65-2.4.21-2.11,2.24-3.96,4.54-4.17,2.35-.17,4.2,1.4,4.07,3.59-.1,2.27-2.2,4.24-4.67,4.37-.67.04-1.28-.06-1.82-.28Zm5.22-19.65l-1.54-5.98c-.2.05-.41.09-.62.12-2.08.24-3.45-1.31-3.12-3.4.34-1.99,2.18-3.85,4.17-4.21,2.08-.33,3.59,1.08,3.34,3.18-.13,1.36-.95,2.64-2.07,3.48l1.59,6.17c.13-.02.25-.04.38-.05,2.35-.17,4.2,1.41,4.07,3.59-.1,2.27-2.2,4.24-4.67,4.37-2.41.15-4.16-1.58-3.95-3.79.14-1.42,1.1-2.71,2.41-3.48Zm9.25-25.49l-7.42,4.86-.02.07c-.37,1.77-2.24,3.58-4.13,3.98-1.77.43-2.72-.67-2.22-2.33.52-1.55,2.25-3.2,3.91-3.75.81-.23,1.49-.16,1.94.15l6.33-4.14c-.1-.26-.11-.56-.03-.87.36-1.23,2.23-2.43,4.24-2.76,2-.26,3.52.49,3.32,1.78-.19,1.42-2.13,2.82-4.32,3.05-.59.07-1.13.06-1.59-.04Zm20.84,51.84l8.01-.41c.49-1.92,2.39-3.47,4.55-3.57,2.41-.15,4.16,1.57,3.97,3.77-.23,2.13-2.26,3.98-4.56,4.19-1.96.15-3.56-.92-3.98-2.54l-7.93.41c-.39,1.71-2,3.05-3.94,3.32l-.93,9.72c1.76.24,2.97,1.26,2.86,2.46-.14,1.29-2,2.34-4.09,2.43-2.13.04-3.9-.92-3.93-2.22-.05-1.26,1.38-2.39,3.3-2.66l.94-9.83c-1.88-.45-3.24-1.94-3.27-3.75-.01-2.29,2.06-4.2,4.64-4.22,2.11-.04,3.84,1.2,4.35,2.9Zm-17.4-11.41l-6.14,8.04c.7.77,1.16,1.73,1.23,2.73.16,2.14-1.51,3.65-3.76,3.39-2.16-.27-4.12-2.15-4.41-4.22-.25-2.14,1.33-3.79,3.59-3.6.66.05,1.31.25,1.89.56l6-7.86c-.79-.74-1.25-1.75-1.21-2.87.1-1.89,1.64-3.47,3.64-3.91v-8.46c-2.15-.33-3.72-2.01-3.64-4.03.11-2.19,2.17-3.97,4.64-4.03,2.46-.02,4.48,1.7,4.5,3.9.03,1.99-1.55,3.69-3.65,4.11v8.45c2.06.33,3.62,1.9,3.65,3.84.03,2.29-2.07,4.2-4.64,4.21-.6,0-1.17-.09-1.7-.26Zm27.84-37.59l.27,5.69c1.47.74,2.62,2.18,2.83,3.73.27,2.17-1.33,3.79-3.59,3.6-1.85-.14-3.52-1.41-4.22-3.04h-8.87c-.52,1.78-2.34,3.12-4.49,3.13-2.58.04-4.58-1.81-4.5-4.09.11-2.19,2.17-3.97,4.64-4.03,2.17-.02,3.99,1.31,4.41,3.13h8.46c.08-1.8,1.54-3.02,3.45-2.94l-.27-5.6c-1.52-.59-2.78-1.73-3-2.82-.29-1.26,1.05-1.91,2.94-1.53,1.86.44,3.71,1.7,4.18,2.9.4,1.2-.56,2.02-2.26,1.88Zm-18.6,74.61c1.47,0,2.92-.07,4.35-.21h0c.48-.06.83-.13.91-.2.19-.28-1.2-.5-3.1-.4-1.86.04-3.39.38-3.35.67.04.08.35.12.85.14.12,0,.23,0,.35,0Z"></path></clipPath></defs><g><path class="cls-13" d="m0,84.84V0h4.12v81.08h49.69v3.76H0Z"></path><path class="cls-13" d="m55.87,84.84L95.14,0h4l39.27,84.84h-4.48L96.23,2.79h1.82l-37.69,82.05h-4.48Zm13.57-24.85l1.58-3.52h51.88l1.58,3.52h-55.03Z"></path><path class="cls-13" d="m166.78,84.84V3.76h-31.15V0h66.3v3.76h-31.15v81.08h-4Z"></path><path class="cls-13" d="m199.02,84.84L238.29,0h4l39.27,84.84h-4.48L239.38,2.79h1.82l-37.69,82.05h-4.48Zm13.57-24.85l1.58-3.52h51.88l1.58,3.52h-55.03Z"></path><path class="cls-13" d="m298.04,84.84V0h3.39l40,69.45h-1.82L379.37,0h3.39l.12,84.84h-4l-.12-78.78h1.33l-38.54,67.03h-2.18L300.58,6.06h1.45v78.78h-4Z"></path></g><g><path class="cls-18" d="m28.42,167.69v-64.23h5.6l44.32,55.79h-2.94v-55.79h6.7v64.23h-5.6l-44.23-55.79h2.94v55.79h-6.79Z"></path><path class="cls-18" d="m180.01,167.69v-64.23h26.15c6.85,0,12.86,1.36,18.03,4.08,5.17,2.72,9.19,6.5,12.07,11.33,2.87,4.83,4.31,10.4,4.31,16.7s-1.44,11.87-4.31,16.7c-2.88,4.83-6.9,8.61-12.07,11.33-5.17,2.72-11.18,4.08-18.03,4.08h-26.15Zm6.79-5.87h18.99c5.69,0,10.63-1.12,14.82-3.35,4.19-2.23,7.45-5.32,9.77-9.27,2.32-3.95,3.49-8.49,3.49-13.63s-1.16-9.76-3.49-13.67c-2.33-3.91-5.58-6.99-9.77-9.22-4.19-2.23-9.13-3.35-14.82-3.35h-18.99v52.49Z"></path><path class="cls-18" d="m262.59,161.82h38.63v5.87h-45.42v-64.23h44.05v5.87h-37.25v52.49Zm-.73-29.64h33.95v5.78h-33.95v-5.78Z"></path><path class="cls-18" d="m334.9,168.24c-4.77,0-9.35-.78-13.72-2.34-4.37-1.56-7.75-3.56-10.14-6.01l2.66-5.23c2.26,2.2,5.31,4.05,9.13,5.55,3.82,1.5,7.85,2.25,12.07,2.25s7.33-.5,9.86-1.51c2.54-1.01,4.4-2.37,5.6-4.08,1.19-1.71,1.79-3.61,1.79-5.69,0-2.51-.72-4.53-2.16-6.06-1.44-1.53-3.32-2.74-5.64-3.62-2.33-.89-4.89-1.67-7.71-2.34-2.82-.67-5.63-1.39-8.44-2.16-2.81-.76-5.4-1.79-7.75-3.07-2.36-1.28-4.25-2.98-5.69-5.09-1.44-2.11-2.16-4.88-2.16-8.3,0-3.18.84-6.1,2.52-8.76,1.68-2.66,4.27-4.8,7.75-6.42,3.49-1.62,7.95-2.43,13.4-2.43,3.61,0,7.19.5,10.74,1.51,3.55,1.01,6.61,2.4,9.18,4.18l-2.29,5.41c-2.75-1.84-5.68-3.18-8.76-4.04-3.09-.86-6.07-1.28-8.95-1.28-3.85,0-7.04.52-9.54,1.56-2.51,1.04-4.36,2.43-5.55,4.18-1.19,1.74-1.79,3.72-1.79,5.92,0,2.51.72,4.53,2.16,6.06,1.44,1.53,3.33,2.72,5.69,3.58,2.36.86,4.94,1.62,7.75,2.29,2.81.67,5.61,1.41,8.4,2.2,2.78.8,5.35,1.82,7.71,3.07,2.35,1.25,4.25,2.92,5.69,5,1.44,2.08,2.16,4.8,2.16,8.17,0,3.12-.86,6.01-2.57,8.67-1.71,2.66-4.33,4.8-7.85,6.42-3.52,1.62-8.03,2.43-13.53,2.43Z"></path></g><g class="cls-76"><polygon class="cls-27" points="72.42 153.72 72.35 153.85 150.4 194.68 150.48 194.54 72.42 153.72"></polygon><rect class="cls-93" x="111.1" y="130.13" width=".65" height="88.09" transform="translate(-94.56 192.06) rotate(-62.35)"></rect><rect class="cls-96" x="111.3" y="129.74" width=".66" height="88.09" transform="translate(-94.08 192.4) rotate(-62.46)"></rect><rect class="cls-96" x="111.51" y="129.35" width=".66" height="88.09" transform="translate(-93.64 192.25) rotate(-62.42)"></rect><rect class="cls-7" x="111.71" y="128.97" width=".66" height="88.09" transform="translate(-93.22 191.87) rotate(-62.32)"></rect><rect class="cls-7" x="111.91" y="128.58" width=".66" height="88.09" transform="translate(-92.71 192.4) rotate(-62.48)"></rect><rect class="cls-7" x="112.11" y="128.19" width=".66" height="88.09" transform="translate(-92.29 192.05) rotate(-62.39)"></rect><rect class="cls-7" x="112.32" y="127.8" width=".65" height="88.09" transform="translate(-91.83 192.13) rotate(-62.42)"></rect><polygon class="cls-37" points="73.67 151.34 73.97 150.75 152.03 191.58 151.72 192.16 73.67 151.34"></polygon><rect class="cls-40" x="112.72" y="127.03" width=".66" height="88.09" transform="translate(-90.97 191.64) rotate(-62.3)"></rect><rect class="cls-40" x="112.92" y="126.64" width=".66" height="88.09" transform="translate(-90.5 191.74) rotate(-62.33)"></rect><rect class="cls-86" x="113.13" y="126.26" width=".66" height="88.09" transform="translate(-90.01 192.15) rotate(-62.46)"></rect><rect class="cls-86" x="113.33" y="125.87" width=".65" height="88.09" transform="translate(-89.6 191.67) rotate(-62.33)"></rect><rect class="cls-57" x="113.53" y="125.48" width=".65" height="88.09" transform="translate(-89.13 191.85) rotate(-62.39)"></rect><rect class="cls-57" x="113.73" y="125.09" width=".66" height="88.09" transform="translate(-88.68 191.82) rotate(-62.39)"></rect><rect class="cls-57" x="113.94" y="124.71" width=".65" height="88.09" transform="translate(-88.27 191.35) rotate(-62.27)"></rect><rect class="cls-28" x="114.14" y="124.32" width=".65" height="88.09" transform="translate(-87.77 191.8) rotate(-62.4)"></rect><rect class="cls-28" x="114.34" y="123.93" width=".66" height="88.09" transform="translate(-87.32 191.74) rotate(-62.39)"></rect><rect class="cls-100" x="114.55" y="123.54" width=".65" height="88.09" transform="translate(-86.9 191.47) rotate(-62.32)"></rect><polygon class="cls-100" points="75.9 147.08 76.2 146.49 154.25 187.32 153.95 187.9 75.9 147.08"></polygon><rect class="cls-92" x="114.95" y="122.77" width=".66" height="88.09" transform="translate(-85.98 191.54) rotate(-62.36)"></rect><rect class="cls-92" x="115.15" y="122.38" width=".65" height="88.09" transform="translate(-85.57 191.19) rotate(-62.27)"></rect><rect class="cls-92" x="115.36" y="121.99" width=".66" height="88.09" transform="translate(-85.02 191.92) rotate(-62.48)"></rect><rect class="cls-87" x="115.56" y="121.61" width=".66" height="88.09" transform="translate(-84.61 191.57) rotate(-62.39)"></rect><rect class="cls-87" x="115.76" y="121.22" width=".66" height="88.09" transform="translate(-84.14 191.65) rotate(-62.42)"></rect><rect class="cls-39" x="115.96" y="120.83" width=".66" height="88.09" transform="translate(-83.67 191.75) rotate(-62.46)"></rect><rect class="cls-39" x="116.17" y="120.45" width=".66" height="88.09" transform="translate(-83.26 191.4) rotate(-62.37)"></rect><rect class="cls-39" x="116.37" y="120.06" width=".65" height="88.09" transform="translate(-82.8 191.48) rotate(-62.4)"></rect><rect class="cls-82" x="116.57" y="119.67" width=".66" height="88.09" transform="translate(-82.3 191.77) rotate(-62.49)"></rect><rect class="cls-82" x="116.77" y="119.28" width=".66" height="88.09" transform="translate(-81.93 191.19) rotate(-62.33)"></rect><rect class="cls-82" x="116.98" y="118.9" width=".65" height="88.09" transform="translate(-81.43 191.48) rotate(-62.42)"></rect><rect class="cls-32" x="117.18" y="118.51" width=".66" height="88.09" transform="translate(-80.99 191.35) rotate(-62.39)"></rect><rect class="cls-32" x="117.38" y="118.12" width=".65" height="88.09" transform="translate(-80.59 191) rotate(-62.3)"></rect><rect class="cls-32" x="117.58" y="117.73" width=".65" height="88.09" transform="translate(-80.09 191.31) rotate(-62.4)"></rect><rect class="cls-84" x="117.79" y="117.35" width=".66" height="88.09" transform="translate(-79.63 191.28) rotate(-62.4)"></rect><rect class="cls-84" x="117.99" y="116.96" width=".65" height="88.09" transform="translate(-79.22 191.02) rotate(-62.33)"></rect><rect class="cls-84" x="118.19" y="116.57" width=".65" height="88.09" transform="translate(-78.73 191.2) rotate(-62.39)"></rect><rect class="cls-84" x="118.39" y="116.19" width=".66" height="88.09" transform="translate(-78.3 191.06) rotate(-62.36)"></rect><rect class="cls-84" x="118.6" y="115.8" width=".65" height="88.09" transform="translate(-77.86 190.94) rotate(-62.33)"></rect><rect class="cls-84" x="118.8" y="115.41" width=".66" height="88.09" transform="translate(-77.33 191.43) rotate(-62.48)"></rect><rect class="cls-99" x="119" y="115.02" width=".66" height="88.09" transform="translate(-76.93 191.09) rotate(-62.39)"></rect><rect class="cls-99" x="119.2" y="114.64" width=".66" height="88.09" transform="translate(-76.46 191.17) rotate(-62.42)"></rect><rect class="cls-99" x="119.41" y="114.25" width=".66" height="88.09" transform="translate(-75.98 191.26) rotate(-62.46)"></rect><rect class="cls-99" x="119.61" y="113.86" width=".66" height="88.09" transform="translate(-75.59 190.92) rotate(-62.37)"></rect><rect class="cls-99" x="119.81" y="113.47" width=".66" height="88.09" transform="translate(-75.11 191) rotate(-62.4)"></rect><rect class="cls-99" x="120.01" y="113.09" width=".66" height="88.09" transform="translate(-74.61 191.28) rotate(-62.49)"></rect><rect class="cls-99" x="120.22" y="112.7" width=".66" height="88.09" transform="translate(-74.22 190.92) rotate(-62.39)"></rect><rect class="cls-68" x="120.42" y="112.31" width=".65" height="88.09" transform="translate(-73.74 191) rotate(-62.42)"></rect><rect class="cls-68" x="120.62" y="111.93" width=".66" height="88.09" transform="translate(-73.33 190.76) rotate(-62.36)"></rect><rect class="cls-4" x="120.82" y="111.54" width=".66" height="88.09" transform="translate(-72.88 190.72) rotate(-62.36)"></rect><rect class="cls-78" x="121.03" y="111.15" width=".65" height="88.09" transform="translate(-72.4 190.83) rotate(-62.4)"></rect><rect class="cls-78" x="121.23" y="110.76" width=".66" height="88.09" transform="translate(-71.93 190.89) rotate(-62.42)"></rect><rect class="cls-78" x="121.43" y="110.38" width=".66" height="88.09" transform="translate(-71.5 190.75) rotate(-62.39)"></rect><rect class="cls-78" x="121.64" y="109.99" width=".65" height="88.09" transform="translate(-71.05 190.72) rotate(-62.39)"></rect><polygon class="cls-23" points="82.99 133.52 83.29 132.94 161.34 173.77 161.04 174.35 82.99 133.52"></polygon><rect class="cls-20" x="122.04" y="109.21" width=".66" height="88.09" transform="translate(-70.14 190.69) rotate(-62.4)"></rect><rect class="cls-20" x="122.24" y="108.83" width=".66" height="88.09" transform="translate(-69.67 190.75) rotate(-62.42)"></rect><rect class="cls-20" x="122.45" y="108.44" width=".66" height="88.09" transform="translate(-69.25 190.6) rotate(-62.39)"></rect><rect class="cls-20" x="122.65" y="108.05" width=".66" height="88.09" transform="translate(-68.79 190.58) rotate(-62.39)"></rect><rect class="cls-56" x="122.85" y="107.66" width=".66" height="88.09" transform="translate(-68.38 190.33) rotate(-62.32)"></rect><rect class="cls-56" x="123.05" y="107.28" width=".66" height="88.09" transform="translate(-67.91 190.41) rotate(-62.36)"></rect><rect class="cls-56" x="123.26" y="106.89" width=".66" height="88.09" transform="translate(-67.41 190.63) rotate(-62.43)"></rect><rect class="cls-63" x="123.46" y="106.5" width=".66" height="88.09" transform="translate(-66.96 190.6) rotate(-62.43)"></rect><rect class="cls-63" x="123.66" y="106.12" width=".66" height="88.09" transform="translate(-66.53 190.43) rotate(-62.39)"></rect><rect class="cls-63" x="123.86" y="105.73" width=".65" height="88.09" transform="translate(-66.06 190.51) rotate(-62.42)"></rect><rect class="cls-63" x="124.07" y="105.34" width=".66" height="88.09" transform="translate(-65.68 190.16) rotate(-62.32)"></rect><polygon class="cls-51" points="85.42 128.87 85.72 128.29 163.78 169.12 163.47 169.7 85.42 128.87"></polygon><rect class="cls-1" x="124.47" y="104.57" width=".65" height="88.09" transform="translate(-64.72 190.35) rotate(-62.4)"></rect><rect class="cls-1" x="124.67" y="104.18" width=".66" height="88.09" transform="translate(-64.25 190.4) rotate(-62.42)"></rect><rect class="cls-22" x="124.88" y="103.79" width=".66" height="88.09" transform="translate(-63.82 190.27) rotate(-62.39)"></rect><rect class="cls-22" x="125.08" y="103.41" width=".66" height="88.09" transform="translate(-63.39 190.13) rotate(-62.36)"></rect><rect class="cls-22" x="125.28" y="103.02" width=".66" height="88.09" transform="translate(-62.94 190.11) rotate(-62.36)"></rect><rect class="cls-22" x="125.48" y="102.63" width=".66" height="88.09" transform="translate(-62.46 190.21) rotate(-62.4)"></rect><rect class="cls-22" x="125.69" y="102.24" width=".65" height="88.09" transform="translate(-62.02 190.15) rotate(-62.39)"></rect><rect class="cls-67" x="125.89" y="101.86" width=".66" height="88.09" transform="translate(-61.56 190.12) rotate(-62.39)"></rect><rect class="cls-67" x="126.09" y="101.47" width=".66" height="88.09" transform="translate(-61.11 190.1) rotate(-62.39)"></rect><polygon class="cls-103" points="87.44 125 87.75 124.42 165.8 165.25 165.5 165.83 87.44 125"></polygon><rect class="cls-103" x="126.5" y="100.69" width=".66" height="88.09" transform="translate(-60.21 190.04) rotate(-62.39)"></rect><rect class="cls-49" x="126.7" y="100.31" width=".65" height="88.09" transform="translate(-59.75 190.04) rotate(-62.4)"></rect><rect class="cls-49" x="126.9" y="99.92" width=".66" height="88.09" transform="translate(-59.3 190.01) rotate(-62.4)"></rect><rect class="cls-49" x="127.1" y="99.53" width=".66" height="88.09" transform="translate(-58.85 189.95) rotate(-62.39)"></rect><rect class="cls-30" x="127.31" y="99.14" width=".65" height="88.09" transform="translate(-58.4 189.93) rotate(-62.39)"></rect><rect class="cls-30" x="127.51" y="98.76" width=".66" height="88.09" transform="translate(-58 189.69) rotate(-62.32)"></rect><rect class="cls-95" x="127.71" y="98.37" width=".66" height="88.09" transform="translate(-57.46 190) rotate(-62.43)"></rect><rect class="cls-2" x="127.92" y="97.98" width=".65" height="88.09" transform="translate(-57.04 189.87) rotate(-62.4)"></rect><rect class="cls-2" x="128.12" y="97.6" width=".66" height="88.09" transform="translate(-56.57 189.92) rotate(-62.42)"></rect><rect class="cls-14" x="128.32" y="97.21" width=".66" height="88.09" transform="translate(-56.14 189.78) rotate(-62.39)"></rect><rect class="cls-14" x="128.52" y="96.82" width=".66" height="88.09" transform="translate(-55.69 189.76) rotate(-62.39)"></rect><rect class="cls-59" x="128.73" y="96.43" width=".66" height="88.09" transform="translate(-55.28 189.55) rotate(-62.33)"></rect><rect class="cls-59" x="128.93" y="96.05" width=".66" height="88.09" transform="translate(-54.78 189.73) rotate(-62.4)"></rect><rect class="cls-59" x="129.13" y="95.66" width=".66" height="88.09" transform="translate(-54.3 189.78) rotate(-62.42)"></rect><rect class="cls-55" x="129.33" y="95.27" width=".66" height="88.09" transform="translate(-53.88 189.64) rotate(-62.39)"></rect><rect class="cls-55" x="129.54" y="94.88" width=".66" height="88.09" transform="translate(-53.43 189.61) rotate(-62.39)"></rect><rect class="cls-55" x="129.74" y="94.5" width=".65" height="88.09" transform="translate(-53.04 189.38) rotate(-62.32)"></rect><rect class="cls-55" x="129.94" y="94.11" width=".66" height="88.09" transform="translate(-52.53 189.56) rotate(-62.39)"></rect><rect class="cls-71" x="130.14" y="93.72" width=".66" height="88.09" transform="translate(-52.07 189.56) rotate(-62.4)"></rect><rect class="cls-71" x="130.35" y="93.34" width=".66" height="88.09" transform="translate(-51.61 189.53) rotate(-62.4)"></rect><rect class="cls-50" x="130.55" y="92.95" width=".66" height="88.09" transform="translate(-51.14 189.58) rotate(-62.42)"></rect><rect class="cls-19" x="130.75" y="92.56" width=".66" height="88.09" transform="translate(-50.75 189.34) rotate(-62.36)"></rect><rect class="cls-19" x="130.95" y="92.17" width=".66" height="88.09" transform="translate(-50.33 189.21) rotate(-62.32)"></rect><rect class="cls-64" x="131.16" y="91.79" width=".66" height="88.09" transform="translate(-49.78 189.52) rotate(-62.43)"></rect><rect class="cls-5" x="131.36" y="91.4" width=".66" height="88.09" transform="translate(-49.35 189.39) rotate(-62.4)"></rect><rect class="cls-5" x="131.56" y="91.01" width=".66" height="88.09" transform="translate(-48.88 189.43) rotate(-62.42)"></rect><rect class="cls-21" x="131.76" y="90.62" width=".66" height="88.09" transform="translate(-48.46 189.3) rotate(-62.39)"></rect><rect class="cls-21" x="131.97" y="90.24" width=".65" height="88.09" transform="translate(-48.04 189.17) rotate(-62.36)"></rect><rect class="cls-21" x="132.17" y="89.85" width=".66" height="88.09" transform="translate(-47.55 189.25) rotate(-62.39)"></rect><rect class="cls-21" x="132.37" y="89.46" width=".66" height="88.09" transform="translate(-47.07 189.32) rotate(-62.42)"></rect><rect class="cls-72" x="132.57" y="89.08" width=".66" height="88.09" transform="translate(-46.61 189.32) rotate(-62.43)"></rect><rect class="cls-72" x="132.78" y="88.69" width=".66" height="88.09" transform="translate(-46.17 189.26) rotate(-62.42)"></rect><rect class="cls-72" x="132.98" y="88.3" width=".66" height="88.09" transform="translate(-45.81 188.93) rotate(-62.32)"></rect><rect class="cls-72" x="133.18" y="87.91" width=".66" height="88.09" transform="translate(-45.36 188.9) rotate(-62.32)"></rect><rect class="cls-72" x="133.38" y="87.53" width=".66" height="88.09" transform="translate(-44.84 189.08) rotate(-62.39)"></rect><rect class="cls-72" x="133.59" y="87.14" width=".66" height="88.09" transform="translate(-44.38 189.08) rotate(-62.4)"></rect><rect class="cls-72" x="133.79" y="86.75" width=".66" height="88.09" transform="translate(-43.93 189.05) rotate(-62.4)"></rect><rect class="cls-44" x="133.99" y="86.36" width=".66" height="88.09" transform="translate(-43.49 188.99) rotate(-62.39)"></rect><rect class="cls-35" x="134.2" y="85.98" width=".65" height="88.09" transform="translate(-43.1 188.76) rotate(-62.32)"></rect><rect class="cls-35" x="134.4" y="85.59" width=".66" height="88.09" transform="translate(-42.65 188.74) rotate(-62.32)"></rect><rect class="cls-35" x="134.6" y="85.2" width=".66" height="88.09" transform="translate(-42.16 188.83) rotate(-62.36)"></rect><rect class="cls-35" x="134.8" y="84.81" width=".66" height="88.09" transform="translate(-41.64 188.98) rotate(-62.42)"></rect><rect class="cls-88" x="135.01" y="84.43" width=".66" height="88.09" transform="translate(-41.23 188.85) rotate(-62.39)"></rect><rect class="cls-88" x="135.21" y="84.04" width=".66" height="88.09" transform="translate(-40.88 188.52) rotate(-62.29)"></rect><rect class="cls-88" x="135.41" y="83.65" width=".65" height="88.09" transform="translate(-40.29 188.89) rotate(-62.42)"></rect><rect class="cls-101" x="135.61" y="83.27" width=".66" height="88.09" transform="translate(-39.87 188.77) rotate(-62.39)"></rect><rect class="cls-101" x="135.82" y="82.88" width=".66" height="88.09" transform="translate(-39.39 188.84) rotate(-62.42)"></rect><rect class="cls-74" x="136.02" y="82.49" width=".65" height="88.09" transform="translate(-38.96 188.74) rotate(-62.4)"></rect><rect class="cls-18" x="136.22" y="82.1" width=".66" height="88.09" transform="translate(-38.51 188.7) rotate(-62.4)"></rect><rect class="cls-18" x="136.42" y="81.72" width=".66" height="88.09" transform="translate(-38.14 188.46) rotate(-62.32)"></rect><rect class="cls-18" x="136.63" y="81.33" width=".65" height="88.09" transform="translate(-37.58 188.73) rotate(-62.42)"></rect><rect class="cls-18" x="136.83" y="80.94" width=".66" height="88.09" transform="translate(-37.16 188.6) rotate(-62.39)"></rect><rect class="cls-25" x="137.03" y="80.55" width=".66" height="88.09" transform="translate(-36.66 188.69) rotate(-62.43)"></rect><rect class="cls-25" x="137.23" y="80.17" width=".66" height="88.09" transform="translate(-36.32 188.37) rotate(-62.33)"></rect><rect class="cls-25" x="137.44" y="79.78" width=".66" height="88.09" transform="translate(-35.77 188.61) rotate(-62.42)"></rect><rect class="cls-52" x="137.64" y="79.39" width=".66" height="88.09" transform="translate(-35.39 188.38) rotate(-62.36)"></rect><rect class="cls-52" x="137.84" y="79.01" width=".65" height="88.09" transform="translate(-34.9 188.46) rotate(-62.39)"></rect><rect class="cls-12" x="138.04" y="78.62" width=".66" height="88.09" transform="translate(-34.44 188.45) rotate(-62.4)"></rect><rect class="cls-12" x="138.25" y="78.23" width=".65" height="88.09" transform="translate(-34.03 188.32) rotate(-62.36)"></rect><rect class="cls-12" x="138.45" y="77.84" width=".66" height="88.09" transform="translate(-33.58 188.27) rotate(-62.36)"></rect><polygon class="cls-75" points="99.8 101.38 100.11 100.79 178.16 141.62 177.86 142.21 99.8 101.38"></polygon><rect class="cls-75" x="138.86" y="77.07" width=".65" height="88.09" transform="translate(-32.57 188.51) rotate(-62.46)"></rect><rect class="cls-75" x="139.06" y="76.68" width=".66" height="88.09" transform="translate(-32.19 188.29) rotate(-62.39)"></rect><rect class="cls-75" x="139.26" y="76.29" width=".66" height="88.09" transform="translate(-31.7 188.35) rotate(-62.42)"></rect><rect class="cls-11" x="139.46" y="75.91" width=".65" height="88.09" transform="translate(-31.28 188.25) rotate(-62.4)"></rect><rect class="cls-11" x="139.67" y="75.52" width=".66" height="88.09" transform="translate(-30.9 188.03) rotate(-62.33)"></rect><rect class="cls-11" x="139.87" y="75.13" width=".66" height="88.09" transform="translate(-30.42 188.08) rotate(-62.36)"></rect><rect class="cls-80" x="140.07" y="74.75" width=".66" height="88.09" transform="translate(-29.85 188.34) rotate(-62.46)"></rect><rect class="cls-80" x="140.27" y="74.36" width=".66" height="88.09" transform="translate(-29.44 188.22) rotate(-62.42)"></rect><rect class="cls-3" x="140.48" y="73.97" width=".66" height="88.09" transform="translate(-29.06 188.02) rotate(-62.37)"></rect><rect class="cls-3" x="140.68" y="73.58" width=".66" height="88.09" transform="translate(-28.64 187.89) rotate(-62.33)"></rect><rect class="cls-65" x="140.88" y="73.2" width=".66" height="88.09" transform="translate(-28.12 188.03) rotate(-62.39)"></rect><rect class="cls-17" x="141.08" y="72.81" width=".66" height="88.09" transform="translate(-27.63 188.1) rotate(-62.42)"></rect><rect class="cls-42" x="141.29" y="72.42" width=".66" height="88.09" transform="translate(-27.22 187.97) rotate(-62.39)"></rect><rect class="cls-17" x="141.49" y="72.03" width=".66" height="88.09" transform="translate(-26.77 187.95) rotate(-62.39)"></rect><rect class="cls-31" x="141.69" y="71.65" width=".66" height="88.09" transform="translate(-26.31 187.94) rotate(-62.4)"></rect><rect class="cls-33" x="141.89" y="71.26" width=".66" height="88.09" transform="translate(-25.94 187.73) rotate(-62.33)"></rect><rect class="cls-73" x="142.1" y="70.87" width=".66" height="88.09" transform="translate(-25.37 187.96) rotate(-62.42)"></rect><rect class="cls-98" x="142.3" y="70.49" width=".66" height="88.09" transform="translate(-24.92 187.93) rotate(-62.42)"></rect><rect class="cls-69" x="142.5" y="70.1" width=".66" height="88.09" transform="translate(-24.59 187.62) rotate(-62.32)"></rect><rect class="cls-69" x="142.7" y="69.71" width=".66" height="88.09" transform="translate(-24.1 187.68) rotate(-62.36)"></rect><rect class="cls-97" x="142.91" y="69.32" width=".66" height="88.09" transform="translate(-23.59 187.77) rotate(-62.4)"></rect><rect class="cls-105" x="143.11" y="68.94" width=".66" height="88.09" transform="translate(-23.07 187.91) rotate(-62.46)"></rect><rect class="cls-105" x="143.31" y="68.55" width=".66" height="88.09" transform="translate(-22.7 187.69) rotate(-62.39)"></rect><rect class="cls-54" x="143.51" y="68.16" width=".66" height="88.09" transform="translate(-22.21 187.76) rotate(-62.42)"></rect><rect class="cls-54" x="143.72" y="67.77" width=".66" height="88.09" transform="translate(-21.75 187.73) rotate(-62.42)"></rect><rect class="cls-62" x="143.92" y="67.39" width=".66" height="88.09" transform="translate(-21.38 187.54) rotate(-62.37)"></rect><rect class="cls-24" x="144.12" y="67" width=".66" height="88.09" transform="translate(-20.85 187.68) rotate(-62.42)"></rect><rect class="cls-34" x="144.32" y="66.61" width=".66" height="88.09" transform="translate(-20.35 187.74) rotate(-62.46)"></rect><rect class="cls-36" x="144.53" y="66.23" width=".66" height="88.09" transform="translate(-19.99 187.52) rotate(-62.39)"></rect><rect class="cls-45" x="144.73" y="65.84" width=".66" height="88.09" transform="translate(-19.49 187.59) rotate(-62.42)"></rect><rect class="cls-45" x="144.93" y="65.45" width=".66" height="88.09" transform="translate(-19 187.65) rotate(-62.45)"></rect><rect class="cls-61" x="145.13" y="65.06" width=".66" height="88.09" transform="translate(-18.63 187.44) rotate(-62.39)"></rect><rect class="cls-61" x="145.34" y="64.68" width=".66" height="88.09" transform="translate(-18.17 187.43) rotate(-62.4)"></rect><rect class="cls-70" x="145.54" y="64.29" width=".66" height="88.09" transform="translate(-17.73 187.38) rotate(-62.39)"></rect><rect class="cls-70" x="145.74" y="63.9" width=".66" height="88.09" transform="translate(-17.28 187.35) rotate(-62.39)"></rect><rect class="cls-66" x="145.95" y="63.51" width=".66" height="88.09" transform="translate(-16.92 187.14) rotate(-62.32)"></rect><rect class="cls-102" x="146.15" y="63.13" width=".66" height="88.09" transform="translate(-16.33 187.39) rotate(-62.42)"></rect><rect class="cls-48" x="146.35" y="62.74" width=".66" height="88.09" transform="translate(-15.91 187.29) rotate(-62.4)"></rect><rect class="cls-29" x="146.55" y="62.35" width=".66" height="88.09" transform="translate(-15.47 187.24) rotate(-62.39)"></rect><rect class="cls-58" x="146.76" y="61.96" width=".66" height="88.09" transform="translate(-15.02 187.21) rotate(-62.39)"></rect><rect class="cls-43" x="146.96" y="61.58" width=".66" height="88.09" transform="translate(-14.57 187.18) rotate(-62.39)"></rect><rect class="cls-38" x="147.16" y="61.19" width=".66" height="88.09" transform="translate(-14.16 187.07) rotate(-62.36)"></rect><rect class="cls-85" x="147.36" y="60.8" width=".66" height="88.09" transform="translate(-13.61 187.24) rotate(-62.43)"></rect><rect class="cls-90" x="147.57" y="60.42" width=".66" height="88.09" transform="translate(-13.21 187.1) rotate(-62.39)"></rect><rect class="cls-8" x="147.77" y="60.03" width=".66" height="88.09" transform="translate(-12.71 187.16) rotate(-62.42)"></rect><rect class="cls-47" x="147.97" y="59.64" width=".66" height="88.09" transform="translate(-12.4 186.86) rotate(-62.32)"></rect><rect class="cls-91" x="148.17" y="59.25" width=".66" height="88.09" transform="translate(-11.9 186.92) rotate(-62.36)"></rect><rect class="cls-60" x="148.38" y="58.87" width=".66" height="88.09" transform="translate(-11.4 186.99) rotate(-62.39)"></rect><rect class="cls-60" x="148.58" y="58.48" width=".66" height="88.09" transform="translate(-10.94 186.98) rotate(-62.4)"></rect><rect class="cls-26" x="148.78" y="58.09" width=".66" height="88.09" transform="translate(-10.49 186.95) rotate(-62.4)"></rect><rect class="cls-83" x="148.98" y="57.7" width=".66" height="88.09" transform="translate(-10.05 186.9) rotate(-62.39)"></rect><rect class="cls-15" x="149.19" y="57.32" width=".66" height="88.09" transform="translate(-9.69 186.69) rotate(-62.32)"></rect><rect class="cls-79" x="149.39" y="56.93" width=".66" height="88.09" transform="translate(-9.24 186.66) rotate(-62.32)"></rect><rect class="cls-16" x="149.59" y="56.54" width=".66" height="88.09" transform="translate(-8.68 186.84) rotate(-62.4)"></rect><rect class="cls-94" x="149.79" y="56.16" width=".66" height="88.09" transform="translate(-8.23 186.81) rotate(-62.4)"></rect><rect class="cls-46" x="150" y="55.77" width=".66" height="88.09" transform="translate(-7.84 186.67) rotate(-62.36)"></rect><rect class="cls-46" x="150.2" y="55.38" width=".66" height="88.09" transform="translate(-7.44 186.55) rotate(-62.32)"></rect><rect class="cls-41" x="150.4" y="54.99" width=".66" height="88.09" transform="translate(-6.84 186.79) rotate(-62.42)"></rect><rect class="cls-41" x="150.61" y="54.61" width=".66" height="88.09" transform="translate(-6.43 186.67) rotate(-62.39)"></rect><rect class="cls-6" x="150.81" y="54.22" width=".66" height="88.09" transform="translate(-5.92 186.76) rotate(-62.43)"></rect><rect class="cls-9" x="151.01" y="53.83" width=".66" height="88.09" transform="translate(-5.52 186.64) rotate(-62.4)"></rect><rect class="cls-53" x="151.21" y="53.44" width=".66" height="88.09" transform="translate(-5.13 186.5) rotate(-62.36)"></rect><rect class="cls-104" x="151.42" y="53.06" width=".66" height="88.09" transform="translate(-4.73 186.38) rotate(-62.32)"></rect><rect class="cls-10" x="151.62" y="52.67" width=".66" height="88.09" transform="translate(-4.12 186.62) rotate(-62.42)"></rect><rect class="cls-10" x="151.82" y="52.28" width=".66" height="88.09" transform="translate(-3.72 186.5) rotate(-62.39)"></rect><polygon class="cls-89" points="113.17 75.82 113.26 75.65 191.31 116.48 191.23 116.64 113.17 75.82"></polygon></g><path class="cls-77" d="m169.08,128.84c-.68.18-1.21.34-1.76.46-2.9.64-5.69.11-8.41-.88-2.19-.79-4.35-1.66-6.54-2.44-1.87-.66-3.8-1-5.79-.71-2.88.43-5.35,1.74-7.46,3.74-.64.61-1.21,1.3-1.85,1.94.06-.1.11-.22.18-.31,2.23-3.03,5.13-5.04,8.83-5.8,2-.41,3.99-.16,5.91.44,2.11.66,4.17,1.45,6.26,2.18,2.21.77,4.45,1.38,6.82,1.23,1.53-.1,2.98-.49,4.36-1.15.18-.09.37-.16.55-.23.04-.02.09,0,.26-.01-.34,1.21-.62,2.39-1.02,3.52-1.06,3.07-2.53,5.94-4.66,8.41-3.65,4.24-8.19,6.6-13.89,6.34-2.32-.11-4.52-.77-6.63-1.7-1.7-.75-3.37-1.57-5.05-2.38-1.9-.91-3.77-.7-5.3.76-.76.73-1.39,1.6-2.03,2.45-.47.62-1.04.86-1.61.54-.56-.32-.7-.91-.39-1.6,1.73-3.84,4.61-6.53,8.34-8.38,2.51-1.24,5.12-2.15,7.94-2.29,2.02-.1,4,.26,5.99.62,1.75.31,3.51.56,5.27.72.79.07,1.61-.11,2.44-.14-.47.09-.94.2-1.41.26-2.28.3-4.51-.13-6.73-.54-3.31-.61-6.58-.68-9.79.51-3.43,1.27-6.6,2.97-8.92,5.88-.88,1.11-1.51,2.41-2.25,3.63-.07.12-.08.29-.11.44.05.03.1.06.15.09.12-.13.24-.25.35-.38.78-.92,1.47-1.95,2.36-2.74,1.62-1.44,3.56-1.77,5.59-.98,1.3.51,2.53,1.18,3.79,1.77,2.49,1.17,5.04,2.18,7.83,2.37,4.43.31,8.24-1.18,11.5-4.11,3.04-2.73,4.99-6.19,6.35-10,.17-.47.32-.96.51-1.54Z"></path></svg> 